<?xml version="1.0" encoding="UTF-8" standalone="no"?>

<svg xmlns:rdf="http://www.w3.org/1999/02/22-rdf-syntax-ns#" xmlns="http://www.w3.org/2000/svg" height="100%" width="100%" version="1.1" xmlns:cc="http://creativecommons.org/ns#" xmlns:dc="http://purl.org/dc/elements/1.1/" viewBox="0 0 360 180">

 <metadata>

  <rdf:RDF>

   <cc:Work rdf:about="">

    <dc:format>image/svg+xml</dc:format>

    <dc:type rdf:resource="http://purl.org/dc/dcmitype/StillImage"/>

    <dc:title/>

   </cc:Work>

  </rdf:RDF>

 </metadata>

<!-- svg generated using QGIS www.qgis.org -->

 <g transform="translate(0,-0.07863)">

  <rect height="180" width="360" y="0.07863" x="0" fill="none"/>

  <path d="m120.46,170.01-0.31451,0.62904-0.31452,0.31452-2.2016,0-2.2016,0-1.2581-0.31452-0.62904-0.31452,2.2016,0,2.2016,0.31452,0.94355-0.62904,0.31452-0.31451,1.2581,0.31451" fill="#616161"/>

  <path d="m20.758,169.7-1.8871,0-1.2581-0.31452-0.62904-0.31452-0.62904-0.31452,0.62904-0.31452,1.8871,0,0.94356,0.31452,0.62904,0.31452,0.31452,0.62904" fill="#616161"/>

  <path d="m134.61,168.13,1.2581,0.31451,0.62904,0.62904,0,0.62904,0,0.31451-1.5726,0.31452-1.5726,0.31452-1.8871,0.31452-1.8871,0.31452-2.5161-0.31452-1.2581-0.31452,0-0.31452,2.2016-0.31452,0.94355-0.31451,0.62904-0.31452,0.31452-0.62904,0.62903-0.31452,0.62904-0.31451,0.62904,0,1.5726-0.31452,1.2581,0.31452" fill="#616161"/>

  <path d="m58.815,163.72,1.2581,0,1.2581,0-0.62904,0.31452-0.94355,0-1.2581,0-1.2581-0.31452,0.31452-0.31452,1.2581,0.31452" fill="#616161"/>

  <path d="m54.412,163.72,1.5726,0.31452-0.62904,0-1.2581-0.31452-1.2581-0.31452,0.62904,0,0.94355,0.31452" fill="#616161"/>

  <path d="m80.831,162.15,1.2581,0,0.94355,0,0.62904,0.31452-0.62904,0-1.2581,0-1.2581,0-1.2581,0-1.2581,0-0.31452-0.31452,0.62904-0.31452,1.2581,0,1.2581,0.31452" fill="#616161"/>

  <path d="m111.34,161.21,0.31452,0.31451-0.31452,0.31452-0.31452,0.31452-0.94356,0.31452-1.2581,0-1.2581,0,0.31452-0.31452-0.94356,0.31452-1.2581,0-0.62904-0.31452,0-0.31452,0.94356-0.31452,0.62904-0.31451,1.2581,0,0.31452-0.31452,0-0.62904,0-0.62903,0.62903-0.62904,0.94356,0,0.31451,0.31452,0.31452,0.31452,0.62904,0.62903,0.31452,0.31452,0,0.62904" fill="#616161"/>

  <path d="m121.4,154.29-0.62904,0.31451-0.62903-0.31451-0.94356,0-0.62903,0.31451-0.62904,0.31452-0.62904,0.31452,0,0.31452,0,0.31452,0.62904,0.31452-0.94356,0.31451-0.94355,0-0.31452,0.31452-0.62903,0.31452-0.62904,0.62904-0.31452,0.31451,0.31452,0.31452,0.62904,0.31452,0.94355,0.31452,0.62904,0.31452,0.31451,0.31452,0.31452,0.31451,0.31452,0.62904,0.62904,0.31452,0,0.31452,0.31452,0.94355,0.31451,0.31452,0,0.31452,0.31452,0.62903,0,0.31452-0.62903,0.62904-0.62904,0.31452-1.2581,0-0.62904,0.31451-0.62904,0.31452-1.2581,0.31452-1.5726,0.31452-1.2581,0.31452-1.2581,0-0.62903,0.62903-1.5726,0-1.8871,0-1.5726,0-1.5726,0,0.31452,0.31452,1.2581,0.31452,1.2581,0,0.62904,0.62904-1.2581,0.31451-1.5726-0.31451-1.5726,0.31451,0,0.31452,0,0.62904,1.2581,0.31452,0,0.31451,1.2581,0.31452,2.2016,0.31452,1.8871,0,1.2581,0.31452,1.8871,0.31452,2.5161,0.31451,2.5162,0.31452,1.5726,0.31452,1.8871,0.31452,0.94355,0.31452,0.62904,0.31452,1.2581-0.31452,1.5726-0.31452,1.8871-0.31452,1.8871,0,1.8871-0.31452,2.5161,0,2.5162,0,1.8871,0.31452,0.62903-0.31452,1.2581-0.31452,2.5162,0,2.2016-0.31451,1.8871-0.31452,1.8871,0,2.2016-0.31452,1.5726-0.31452-0.62903-0.31452-0.31452-0.31451,0-0.31452-2.2016,0-1.8871,0.31452-1.8871,0-0.31451-0.62904,0-0.62904,0.62903-0.31451,1.2581,0,1.8871-0.31452,0.94356-0.31452,1.2581-0.31452,0.94355-0.31452,1.5726-0.31452,1.2581,0,0.62903-0.31451,1.5726,0,1.5726,0,1.2581-0.31452,0.94355,0,1.2581-0.31452,1.2581-0.31452,0.94355-0.31452,0.94356-0.31451,0.31451-0.31452-0.94355-0.31452,0.31452-0.62904,0.62903-0.31452,0.94356,0,1.2581-0.31451,0.94356-0.31452,0.62903-0.31452,0.62904-0.62904,0.62904,0,1.2581,0,0.62903,0.31452,0.94356,0,0-0.31452,0.62903-0.62903,1.2581,0.31452,0,0.31451,1.2581,0,1.2581,0,1.2581-0.31451,1.2581,0,0.31452,0.62903,1.2581-0.31452,0.94355-0.31451,1.2581,0,0.94355-0.31452,0.94355-0.31452,1.2581,0,0.94355-0.31452,0.62904-0.31452,0.62903,0.31452,0.94356,0,0.94355,0.31452,0.31452,0.31452,1.2581,0,0.31452-0.62904,1.2581-0.31452,1.2581,0.31452,0.31452,0.31452,0.94355-0.31452,0.94355-0.31452,1.2581,0,0.94355,0,1.2581,0.31452,0.94356,0,0.62903,0.31452,0.62904,0.31452,0.94356-0.31452,1.2581,0,0.94355,0,1.2581,0,0.94355,0,1.2581-0.31452,0.62904-0.31452,0.94355,0,1.2581-0.31451,0.62903,0,0.62904-0.62904,0.62903-0.31452,0.94356,0,0.31452,0.31452,0.94355,0.31452,0.94356,0,0.62903,0.31452,0.94356,0.31451,0.94355-0.31451,0.31452-0.31452,0.94355-0.31452,0.94356-0.31452,0.94355,0,1.2581-0.31452,0.94355-0.31452,0.62904,0,0.94355-0.31451,0.94355,0,0.94356-0.31452,0.62904-0.31452,0.94355,0,0.62904,0,0.31451-0.62904,0.62904,0,0.94356-0.31451,0.94355-0.31452,0.94355,0,0.94356,0,0.94355,0.31452,0.94356,0.31451,0,0.31452,0.94355,0.31452,0.62904,0.31452,0.94355,0,0.62904,0.31452,0.94355,0.31451,0.94356,0,0.94355,0,0.62904-0.62903,0.94355,0.31452,1.2581,0,0.94355,0.31451,0.94355,0,0.94356,0,0.62904,0.94356,0,0.31452,0,0.31452-0.94356,0.31451-0.94355,0.31452,0.31451,0.62904,0.94356,0,0,0.31452-0.62904,0.31451-0.31452,0.31452,0.62904,0.31452,1.2581,0.31452,1.2581-0.31452,0.31451-0.31452,0.31452-0.31452,0.62904-0.31451,0.62904-0.31452,0.31451-0.31452,0.62904-0.62904,0.62904,0,0.94355,0,0.94355-0.31451,1.2581,0,0.31452-0.31452,0.31451-0.62904,0.62904-0.31452,0.94355-0.31452,0.94356,0,0.62904-0.31451,0.62903-0.31452,0.62904,0,0.94355,0,0.94356,0,0.94355-0.31452,1.2581,0,0.62904,0,0.31452-0.94355,0.62903,0.31451,0.31452,0.62904,0.94356,0,0.94355,0.31452,0.94356-0.31452,0.94355,0.31452,0.94355,0,0.62904-0.31452,0.94356,0,0.62903,0.31452,0.94356,0,1.2581,0,0.62904-0.31452,1.2581,0.31452,0.62903-0.31452,0.31452-0.31452,0.94356-0.31452,1.2581-0.94355,0.62904,0.31452,0.62903,0.31452,0.62904,0.31451,1.2581,0.62904,0.94356,0,0.94355,0,1.2581-0.31452,0.94356,0,0.94355-0.31452,0.62904-0.31451,1.2581,0,0.62904-0.31452,0.62903,0.31452,0.62904,0.31451,0.62904,0.31452,1.2581,0,0.62903,0.31452,1.2581,0,1.2581,0.31452,0.94355,0,0.62904-0.31452,0.94355-0.31452,0.62904-0.31452,0.94356,0.31452,1.2581,0,0.94355,0,0.62904,0,0.94355,0,0.94356,0,0.94355,0,0.94356-0.31452,1.2581,0,0.94355,0,0.94356,0,0.94355-0.31451,0.31452-0.31452,0-0.31452,0.62904,0,0.31452,0.62904,0.31451,0.31451,0.31452,0.31452,0.94356,0.31452,0.94355,0,1.2581,0,0.94356-0.31452,1.2581,0,0.94355,0,1.5726,0,0.94355,0.31452,0.62904,0.31452,0,0.31452,0.62903,0.31451,0.94356,0.31452,1.2581,0,1.2581,0.31452,1.2581,0,0.94356,0.31452,1.2581,0,0.62904-0.31452,0.94355,0.31452,0.62904,0.31452,0.94355,0.31452,1.2581,0,1.2581,0,0.31452,0.31451,1.2581,0.31452,0.62904,0.31452,1.2581,0.31452,1.2581,0,0.94355,0,1.2581,0,1.2581,0,0.94355,0.31452,0.94356,0,1.2581,0.31451,0.62904,0.31452,0,0.31452-0.62904,0.31452-0.62903,0.62903-0.31452,0.31452-0.31452,0.31452-1.2581,0.31452-0.62904,0.31452-1.2581,0-0.62904,0.62903-0.62904,0.31452-0.62903,0.31452-0.62904,0.31452,0,0.31452-0.31452,0.62903,0,0.31452,0.62904,0.31452,0.31452,0.31452,0.31452,0.31452,1.8871,0.31451,0.62903,0.31452-1.8871,0.31452-1.5726,0-1.8871,0.31452-0.94355,0.31452,0,0.62903-0.62904,0.31452-0.31452,0.31452,1.2581,0.31452,0.31452,0.62903,0.94355,0.31452,1.2581,0.31452,1.2581,0.31452,1.5726,0.31452,2.5161,0.31451,0.31452,0.31452,2.8307,0.31452,0.31452,0,0.62904,0.31452,2.8307-0.31452,2.2016,0.31452,1.8871,0.31452,0,5.3468-359.81,0,0-5.3468,0.94355-0.62904,1.8871,0.31452,0.31452,0,0.31452,0,0.31452-0.31452,0.31452,0,1.5726,0.62904,1.2581-0.62904,0.31452,0,2.8307,0,0.94356,0,0.31452,0.31452,1.5726,0.31452,2.8307,0.31451,2.2016,0.31452,4.0887,0,2.8307-0.31452,4.0887,0.31452,2.5161,0.31452,2.5161-0.31452,2.8307-0.31452,0.31452-0.31451-4.0887,0-3.1452-0.31452-0.94356-0.31452-2.5161-0.31452,0.31452-0.31452,0.31452-0.62903,0.31452-0.31452-0.31452-0.31452-1.5726-0.31452-0.62904-0.31452-1.5726-0.31451,2.2016,0,2.5161-0.31452,1.2581,0.62903,1.8871-0.31451,1.5726-0.62904,0.94356-0.31452-0.31452-0.31452-1.2581-0.31451-1.5726-0.31452-2.2016,0-1.5726,0-2.2016-0.31452-0.62904-0.31452-1.2581-0.31452-0.62904-0.31451-0.31452-1.2581,0.31452,0.31452,0.94355,0.31452,1.5726-0.31452,1.5726,0,0.94355,0.31452,1.5726,0,1.2581-0.31452,1.2581-0.31452,1.2581-0.31452,1.5726,0,0-0.31451-0.62904-0.31452,0.31452-0.31452,1.5726-0.31452,0.31452,0.31452,1.5726-0.31452,1.2581,0,1.2581,0,1.5726-0.31452,1.2581,0,0.94355-0.31451,1.2581-0.31452,0.94355,0,0.62904,0.31452,1.5726-0.31452,1.2581,0.31452,1.2581,0,1.2581-0.31452,1.5726,0.31452,1.5726,0,1.2581,0,1.5726,0,1.2581,0,1.5726,0,0.94356-0.31452,1.2581-0.31452,1.2581,0.31452,0.94355-0.31452,1.2581-0.31452,0.62904,0.31452,0.31452,0.31452,0.62904,0.31452,0.94355,0,1.2581,0.31451,1.5726,0,0.94355,0.31452,1.5726,0,1.2581-0.31452,1.5726,0,1.2581,0.31452,1.2581,0,0.62904-0.31452-0.62904-0.31451-0.62904-0.31452-1.2581,0-0.62904-0.62904,0-0.31452-0.31452-0.62903,0.62904,0,1.2581,0,1.2581,0,1.2581,0.31451,0.94356,0.31452,0.62904,0.31452,1.2581,0,1.2581,0,1.2581-0.31452,1.2581,0,0.94356,0,1.5726,0,0.62904-0.62903,0.94355,0.31451,1.2581,0.31452,1.2581-0.31452,0.62904,0.62904,1.2581,0,1.2581,0,1.2581,0.31452,0.94356-0.31452,0.31452-0.62904,0.94355,0.62904,1.2581-0.31452,1.2581,0.31452,0.62903,0.31452,1.2581,0,0.94356-0.31452,1.2581-0.31452,0.94356,0,1.5726-0.31452,1.2581,0,0.94355-0.31451,0.62904-0.31452,0.31452-0.31452-0.31452-0.31452-0.31452-0.62903-0.31452-0.31452-0.31451-0.31452-0.31452-0.31452,0-0.31452,0-0.62903,0.62903-0.31452,0.31452-0.31452,0.31452-0.31452-0.31452-0.62903,0-0.31452,0.31452-0.31452,0.62904-0.31452,0.62903-0.62903,0.62904-0.31452,0.94355,0,0.31452-0.62904,0.62904-0.31452,0.62903-0.31452,0.94356,0,0.62904-0.31451,0.62903,0,0.94356-0.31452,0.62903-0.31452,0.62904-0.31452,0.62903,0,0.62904,0.31452-0.31452,0.31452-0.94355,0.31452" fill="#616161"/>

  <path d="m112.28,143.91,1.2581,0.62903,1.2581,0.31452-0.31452,0.31452-0.94356,0.31452-0.62903-0.31452-0.31452,0.31452-0.94355,0.31452-0.94356-0.31452-0.62904-0.31452-1.2581,0-1.2581-0.62904-0.94355-0.31451-1.2581-1.2581,0.62904,0.31452,1.5726,0.62904,1.2581,0.31452,0.62904-0.62904,0.31452-0.62904,0.94355-0.31451,0.62904,0,0.31452,0.62903,0.62903,0.62904" fill="#616161"/>

  <path d="m121.4,141.08,0.62903,0.62904-0.31451,0.31452-1.2581,0.31452-0.31451-0.31452-0.94356,0.31452-0.62903-0.31452,1.2581-0.62904,0.94355,0.31452,0.62904-0.62904" fill="#616161"/>

  <path d="m250.04,139.82-1.5726,0,0-0.31452,0.31452-0.62903,0.62904,0.31452,0.94355,0,0,0.31451-0.31452,0.31452" fill="#616161"/>

  <path d="m325.21,131.01,0.94355,0.31452,0.62904-0.31452,0.62904,0,0.62903,0,0,1.2581-0.31452,0.31451,0,0.62904-0.31451,0-0.62904,0.62904-0.31452,0-0.62903-0.31452-0.62904-0.62904,0-0.62903-0.62904-0.94356,0-0.62903,0.62904,0.31451" fill="#616161"/>

  <path d="m352.89,131.01,0,0.31452,0.94355-0.31452,0.31452,0.31452,0,0.62904-0.62904,0.31452-0.62903,0.94355-0.31452,0.31452,0.31452,0.31452-0.94356,0-0.62903,0.62903-0.31452,0.62904-0.62904,0.94355-0.62903,0.31452-0.62904,0.31452-0.94356,0-0.62903-0.31452-0.94356,0-0.31451-0.31452,0.62903-0.94355,1.2581-0.94356,0.62904,0,0.62904-0.62903,0.94355-0.31452,0.62904-0.62904,0.31452-0.62903,0.31451-0.31452,0.31452-0.62904,0.62904-0.31451,0.31452,0.31451" fill="#616161"/>

  <path d="m354.46,126.3,0.62903,0.94356,0-0.62904,0.62904,0.31452,0,0.62903,0.94355,0.31452,0.62904,0.31452,0.62904-0.62904,0.31452,0.31452-0.31452,0.94356-0.31452,0.62903-0.62904-0.31452-0.31452,0.31452,0,0.62904-0.31451,0.62904-0.62904,0.62903-0.62904,0.62904-0.31451-0.31452-0.31452-0.31452,0.62903-0.62903-0.31451-0.62904-1.2581-0.31452,0-0.62904,0.94356-0.31451,0-0.62904,0-0.62904-0.31452-0.62903,0-0.31452-0.62904-0.31452-0.62903-0.94355-0.62904-0.62904,0.62904,0,0.31451,0.31452,0.94356,0.31452,0.31452,0.94355" fill="#616161"/>

  <path d="m346.91,112.14-0.31452,0.31452-0.62903-0.31452-0.62904-0.31451-0.62904-0.62904-0.62903-0.62904-0.31452-0.31451,0.31452,0,0.62903,0.31451,0.62904,0.31452,0.31452,0.31452,0.62904,0.62904,0.62903,0.31451" fill="#616161"/>

  <path d="m358.24,107.42,0.31451,0.31452-0.31451,0.62904-0.62904,0-0.31452,0-0.31452-0.62904,0.31452-0.31452,0.62904,0.31452,0.31452-0.31452" fill="#616161"/>

  <path d="m359.18,106.8-0.62904,0.31451-0.31451-0.31451,0.62903-0.31452,0.31452,0,0.62904-0.31452,0,0.62904-0.62904,0" fill="#616161"/>

  <path d="m-0.0000014593,106.8,0-0.62904,0.31452,0-0.31452,0.62904" fill="#616161"/>

  <path d="m347.54,106.48-0.31452,0.31452-0.31452-0.62904,0.62904,0.31452" fill="#616161"/>

  <path d="m346.91,105.22,0,0.62903-0.31452,0-0.31451-0.31452,0-0.62903,0.62903,0.31452" fill="#616161"/>

  <path d="m229.91,103.65,0,1.2581,0.31452,0.31452,0,0.62903-0.31452,0.31452-0.31452-0.62904,0,0.31452,0,0.62904,0,0.62903-0.31452,0,0,0.94356-0.31451,1.2581-0.62904,1.2581-0.62904,1.8871-0.31452,1.5726-0.31451,0.94356-0.94356,0.31452-0.94355,0.31451-0.62904,0-0.62903-0.62903-0.31452-0.31452,0-0.94355-0.31452-0.94356-0.31452-0.62904,0.31452-0.62903,0.31452-0.31452,0-0.31452,0.62903-0.62903,0-0.62904-0.31451-0.62904,0-0.62903,0-0.94356,0.31451-0.31452,0-0.62903,0.62904-0.31452,0.62904,0,0.31451-0.31452,0.31452,0,0.62904-0.62903,0.94355-0.62904,0-0.31452,0-0.62904,0.31452,0.31452,0.62904-0.62903,0-0.62904,0.31452-0.62904,0.31451,0.62904,0.31452,0.31452,0.31452,0.62903" fill="#616161"/>

  <path d="m323.32,103.97,0.31452,0.62904,0.62904-0.31452,0.31451,0.31452,0.62904,0.62904,0,0.31451,0,0.94356,0.31452,0.31452,0,0.31451,0.31452,0.94356,0,0.31452,0.31451,0.62903,0.94356,0.62904,0.94355,0.31452,0.62904,0.62903-0.31452,0.31452,0.62904,0.62904,0.62903,0.94355,0.31452-0.31452,0.31452,0.62904,0.31452-0.31452,0,1.2581,0.94355,0.62903,0.31452,0.31452,0.94356,0.62904,0,0.94355,0.31451,0.62904-0.31451,0.62903,0.62903,0.62904,0,0.94355-0.31452,0.62904-0.31451,0.94355,0,0.31452,0,0.94356-0.62904,0.62903-0.62904,0.62904-0.31452,0.94355-0.31451,0.31452-0.31452,0.94356-0.31452,0.31451-0.31452,0.94356-0.31452,0.62904,0.31452,0.31451-0.62903,0.31452-1.2581,0-0.94355,0.62904-0.31452,0.31452-0.62904,0.31451-0.94355-0.31451-0.62904-0.31452,0.31452-0.62904-0.62903,0.31452-0.94356,0.62904-0.94355,0-0.31452-0.31452-0.62904,0-0.94355-0.31452-0.62904-0.62904-0.31452-0.62903-0.31452-0.62904-0.31451-0.31452-0.94356-0.31452,0.31452-0.31451-0.31452-0.94356-0.31452,0.94356-0.94355,0,0.31452-0.62904,0.31452-0.31452,0.31451-0.62903,0-0.62904-0.94355,0.62904-0.62904,0.31451-0.31451,0.94356-0.62904-0.31452,0-0.62904-0.62904-0.62903-0.62903-0.62904,0.31451,0-1.5726-0.62903-0.62903,0-0.94356-0.62904-1.5726,0-1.5726,0.62904-0.94355,0.31451-0.94356-0.31451-1.2581,0.62903-0.62904,0.31452-0.31451,0.31452-0.31452,0.62903-0.94356,0-0.62903,0-0.94356,0-0.62903,0-0.62904,0-0.62904,0.62904-0.31452,0-0.62903,0-0.31452,0.31452-0.62904,0-0.94355,0-0.94355-0.62904-0.62904,0,0-0.62903,0.62904-0.31452,0.31451,0-0.31451-0.31452,0.31451-0.94355,0-0.31452-0.62903-1.2581-0.31452-0.62903,0-0.31452-0.31452-0.62904,0-0.31451-0.31452-0.62904-0.31452-0.62904-0.62903-0.94355,0-0.31452,0.31452,0.31452-0.31452-0.94356,0.62903,0.31452,0.31452,0.62904,0-0.62904-0.62903-0.62903,0-0.31452-0.31452-0.31452,0.31452-0.62904,0-0.31451,0.31451-0.62904-0.31451-0.62904,0.62903-0.62903,0,0.94355,0.31452-0.94355,0.94356-0.31452,0.31451-0.31452,0.94356-0.31452,0.31452,0,0.31451,0,0.94356-0.31452,0.62903-0.31451,0.31452-0.31452,0.62904,0.31452,0.94355-0.31452,0.62904-0.62904,0-0.31452,0.62904-0.62903,0-0.31452,0.31451-0.62904,0.62904-0.94355,0.31452,0.94355,0.31452-0.31452-0.31452-0.31451,0.31452-0.62904,0.62903,0.31452,0-0.62904,0.62904-0.62903,0.31452-0.31452,0.31452-0.31452,0-0.31452,0.62903,0.31452,0-0.31452,0.31452-0.31452,0.62904,0,0.62903,0.31452,0.62904,0.62904,0.62904,0,0.62903,0.31452-0.31452-0.62904,0.62904-0.94356,0.31452,0,0-0.31451,0.31452-0.62904,0.62903-0.31452,0.31452,0,0.94356,0,0-0.62903-0.62904-0.31452,0.31452-0.31452,0.94355,0.31452,0.31452,0.62903,0.94355,0,0.31452,0,0.62904,0.31452,0.62904-0.31452,0.31451,0,0.31452,0,0.31452,0.31452-0.31452,0.62904-0.31452,0.31452-0.31451,0,0,0.62903-0.31452,0.31452-0.31452,0.62904,0,0.31452,0.94355,0.31451,0.62904,0.62904,0.62904,0.31452,0.62903,0.31452,0.31452,0,0.62904,0.31451,0,0.31452,0.94355,0.31452,0.94356-0.31452,0-0.31452,0.31451-0.62903,0-0.62904,0.31452-0.62903,0-0.62904,0-0.31452,0-0.31452,0-0.94355,0.31452,0-0.31452-0.31452,0.31452-0.62904,0-0.62903,0.31452-0.31452,0.31452-0.31452,0.31451,0.62904,0,0.62903,0.31452,0,0,0.31452,0.31452,0.62904,0,0.62903,0,0.31452" fill="#616161"/>

  <path d="m341.88,100.51,0.31452,0.31452-0.62904,0-0.62903-0.31452,0.62903,0,0.31452,0" fill="#616161"/>

  <path d="m300.36,100.51-0.31452,0-1.2581-0.94355,0.94356,0,0.62904,0.31452,0.31451,0.31451-0.31451,0.31452" fill="#616161"/>

  <path d="m340.62,99.877-0.31452,0.31451-0.62904-0.31451-0.31451,0,0-0.62904,0.62903,0.31452,0.31452,0.31452,0.31452,0" fill="#616161"/>

  <path d="m341.57,99.877-0.31451,0-0.62904-0.94356-0.31452-0.31452,0.31452,0,0.31452,0.62904,0.62903,0.62904" fill="#616161"/>

  <path d="m304.14,100.19-0.62903,0.31452-0.31452,0,0-0.31452,0.62904-0.62903,0.94355-0.62904,0.94355-0.31452,0.62904,0,0.31452-0.31451,0.62904,0.31451-0.62904,0.31452-0.94356,0.31452-0.94355,0.31452-0.62904,0.62903" fill="#616161"/>

  <path d="m297.85,98.304,0.31452,0.31451,0.62903-0.31451,0,0.62903-0.94355,0-0.62904,0.31452-0.62903,0,0.31452-0.62904,0.62903,0,0.31452-0.31451" fill="#616161"/>

  <path d="m302.57,98.304,0,0.62903-1.5726,0-1.2581,0,0-0.31452,0.62904-0.31451,0.62903,0.31451,0.94356,0,0.62903-0.31451" fill="#616161"/>

  <path d="m339.68,98.618-0.62903-0.31451-0.62904-0.31452-0.31452-0.31452,0-0.31452,0.62904,0.31452,0.62904,0.62904,0.31451,0.31451" fill="#616161"/>

  <path d="m337.16,97.36,0,0.31452-0.62904-0.31452-0.31452-0.31452,0-0.31451,0.62904,0.31451,0.31452,0.31452" fill="#616161"/>

  <path d="m288.41,97.046,1.8871,0,0.31452-0.31451,1.8871,0.31451,0.31452,0.62904,1.5726,0.31452,1.2581,0.62903-1.2581,0.31452-1.2581-0.31452-0.62904,0-1.2581-0.31451-0.94356,0-0.94355-0.31452-0.94355-0.31452-0.31452,0.31452-1.8871-0.62904,0-0.31452-0.94356,0,0.62904-0.94355,1.2581,0,0.62904,0.31452,0.62904,0,0,0.62903" fill="#616161"/>

  <path d="m314.52,96.417-0.62903,0.62903,0-0.62903,0.31451-0.62904,0-0.31452,0.31452,0.31452,0,0.62904" fill="#616161"/>

  <path d="m335.59,97.046-0.31452,0-0.31452-0.31451-0.31452-0.62904-0.31451-0.94356,0.31451,0.31452,0.31452,0.31452,0.31452,0.62904,0.62904,0.31452-0.31452,0.31451" fill="#616161"/>

  <path d="m331.82,95.473-0.62904,0.31452,0,0.31452-0.62903,0-0.62904,0.31452-0.31452,0-0.94355-0.31452-0.62904-0.31452,0-0.31452,0.94356,0.31452,0.62903,0,0.31452-0.62904,0,0.62904,0.62904-0.31452,0.31452-0.31452,0.62903-0.31451-0.31452-0.62904,0.62904,0,0.31452,0.31452,0,0.62903-0.31452,0.31452" fill="#616161"/>

  <path d="m306.97,93.586-0.31452,0.31452-0.62904,0-0.31452-0.62903,0.94356,0,0.31452,0.31451" fill="#616161"/>

  <path d="m310.11,93.272,0.62903,0.62903-0.94355-0.31452-0.94355,0-0.31452,0-0.94356,0,0.31452-0.62903,1.2581,0,0.94356,0.31452" fill="#616161"/>

  <path d="m333.07,94.53-0.31451,0.31452-0.31452-0.62904-0.31452-0.31452-0.31452-0.31452-0.62904-0.31451-0.62903-0.31452,0.31452-0.31452,0.31451,0.31452,0.31452,0.31452,0.62904,0,0.31452,0.62903,0.31452,0.31452,0.31451,0.31452" fill="#616161"/>

  <path d="m313.89,91.385,0.31451,1.5726,0.94356,0.62903,0.94355-1.2581,1.2581-0.62904,0.62903,0,0.94356,0.62904,0.94355,0.31452,0.94356,0,1.5726,0.94355,1.8871,0.31452,0.94355,0.62904,0.31452,0.62903,0.31452,0.31452,1.5726,0.62904,0.31451,0.62904-0.94355,0,0.31452,0.94355,0.62903,0.62904,0.94356,0.94355,0.31452,0,0,0.31452,0.94355,0.31452-0.31452,0,0.94356,0.62903,0,0.31452-0.62904,0-0.31452-0.31452-0.94355,0-0.94356-0.31452-0.94355-0.62903-0.31452-0.62904-0.62903-0.62903-1.2581-0.62904-0.94355,0.31452-0.62904,0.31452,0.31452,0.94355-0.94355,0.31452-0.62904-0.31452-0.94355,0-0.94356-0.94355-0.94355,0-0.31452,0.31451-1.2581,0,0.62903-0.94355,0.62904-0.31452-0.31452-0.94355-0.62904-0.94356-1.8871-0.62903-0.94356-0.31452-1.2581-0.94356-0.31452,0.62904-0.62904,0,0-0.31452,0-0.31452-0.94355-0.62903,1.2581-0.31452,0.62904,0,0-0.31452-1.5726,0-0.31452-0.62904-0.94356,0-0.31451-0.62903,1.2581-0.31452,0.62904-0.31452,1.5726,0.62904,0,0.31452" fill="#616161"/>

  <path d="m305.08,88.868-0.94356,0.94356-0.62903,0-0.94356,0-1.5726,0-0.94355,0-0.31452,0.94355,0.94355,0.94355,0.62904-0.62903,1.8871-0.31452,0,0.31452-0.62904,0-0.31452,0.62903-0.94355,0.31452,0.94355,1.2581-0.31451,0.31451,0.94355,1.2581,0,0.62903-0.31452,0.31452-0.62903-0.31452,0.62903-0.94355-0.94355,0.31452-0.31452,0,0-0.62904-0.62904-0.31452,0-1.2581-0.62903,0.31452,0,1.2581,0.31452,1.5726-0.62904,0-0.62904-0.31452,0.31452-0.94355,0-0.94356-0.62904,0-0.31451-0.62903,0.62903-0.62904,0-0.94355,0.62904-1.2581,0-0.62903,0.94355-0.62904,0.94356,0.31452,1.2581,0,0.94356,0,0.94355-0.62904,0.31452,0.31452" fill="#616161"/>

  <path d="m308.54,88.868,0,0.94356-0.62904,0,0,0.62903,0.31452,0.62904-0.31452,0-0.31452-0.62904-0.31451-1.2581,0-0.94355,0.31451-0.31452,0.31452,0.62903,0.62904,0,0,0.31452" fill="#616161"/>

  <path d="m285.58,96.102-0.94355,0-0.94356-0.94356-1.2581-0.94355-0.31452-0.31452-0.94355-0.94355-0.31452-0.62904-0.94355-1.5726-0.94356-0.94355-0.31452-0.62904-0.31451-0.94355-0.94356-0.62904-0.31452-0.62904-0.94355-0.62903-0.94356-1.2581,0-0.31451,0.62904,0,1.5726,0,0.62904,1.2581,0.94355,0.62903,0.62904,0.31452,0.94355,0.94356,0.94356,0,0.94355,0.94355,0.31452,0.62904,0.94355,0.62903-0.31451,0.62904,0.31451,0.31452,0.62904,0.31452,0,0.62903,0.31452,0.62904,0.94355,0,0.31452,0.62904-0.31452,1.2581,0,1.5726" fill="#616161"/>

  <path d="m297.53,88.239,1.2581,0.94355-1.2581,0.31452-0.31452,0.62903,0,0.94356-0.94355,0.62903,0,0.94356-0.31452,1.5726,0-0.31452-1.2581,0.31452-0.31452-0.62904-0.94355,0-0.31452-0.31451-1.2581,0.31451-0.31452-0.31451-0.62904,0-0.94355-0.31452,0-1.2581-0.62904-0.31451-0.31452-0.62904-0.31452-0.94355,0-0.94356,0.62904-0.62903,0.94355,0.31451,0.62904-0.31451,0.31452-0.62904,0.31452-0.31452,1.2581-0.31452,0.62904-0.62903,0.62903-0.62904,0.31452-0.31452,0.94356-0.62903,0.62903-0.62904,0.62904-0.94356,0.31452,0,0.62903,0.62904,0,0.31452,0.62904,0.31452,0.94355,0.31452-0.31452,0.31451-0.62903,0,0.31452,0.62904-0.94356,0.31452-0.31452,0.94355,0.62904,0.94356-0.31452,0.31452" fill="#616161"/>

  <path d="m306.03,81.634,0.31452,0.62904,0,0.62904-0.31452,0.94355-0.31452-0.94355-0.62903,0.62903,0.31452,0.62904-0.31452,0.31452-0.94356-0.31452-0.31451-0.94356,0.31451-0.31451-0.62903-0.62904-0.31452,0.62904-0.62904-0.31452-0.62903,0.62903-0.31452-0.31451,0.62903-0.62904,0.62904-0.31452,0.31452-0.62903,0.31452,0.62903,0.94355-0.31452,0-0.31451,0.94356,0-0.31452-0.94356,0.94355,0.62904,0,0.31452,0,0.31451" fill="#616161"/>

  <path d="m261.05,83.836-0.94356,0.31452-0.31452-0.62904-0.31451-1.5726,0.62903-1.5726,0.62904,0.62904,0.31452,0.62903,0.62903,0.94356-0.31451,0.94355-0.31452,0.31452" fill="#616161"/>

  <path d="m118.89,80.062-0.62903,0-0.31452,0,0.31452-0.31451,0-0.31452,0.62903-0.31452,0,0.31452,0,0.62903" fill="#616161"/>

  <path d="m303.82,79.747-0.31452,0.31451-0.31452,0.62904-0.31452,0.31452-0.62904-0.62904,0-0.31452,0.31452-0.31451,0.31452-0.31452,0.31452-0.31452,0,0.62904,0.62904-0.94356,0,0.94356" fill="#616161"/>

  <path d="m298.16,80.691-1.2581,0.94355,0.62903-0.62903,0.62904-0.62904,0.62903-0.62903,0.62904-0.94356,0,0.94356-0.62904,0.31451-0.62903,0.62904" fill="#616161"/>

  <path d="m301.62,78.175,0.62903,0.31452,0.62904,0,0,0.62904-0.31452,0.31452-0.62903,0.31452-0.31452-0.62904,0.31452-0.31452-0.31452-0.62904" fill="#616161"/>

  <path d="m305.4,77.86,0.31451,1.2581-0.94355-0.31452,0,0.31452,0.31452,0.62904-0.62904,0.31451,0-0.62903-0.31452-0.31452,0-0.31452,0.62904,0,0-0.31452-0.62904-0.94355,0.94356,0,0.31452,0.31452" fill="#616161"/>

  <path d="m301.31,77.231-0.31452,0.62904-0.31452-0.31452-0.62903-0.94356,0.94355,0,0.31452,0.62904" fill="#616161"/>

  <path d="m300.99,71.57,0.62904,0.31452,0.31452-0.31452,0.31451,0.31452-0.31451,0.31452,0.31451,0.94355-0.31451,0.62904-0.62904,0.31452,0,0.94355,0.31452,0.94356,0.31452,0,0.62903,0,1.2581,0.31452-0.31452,0.62903,0.31452,0.31452,0,0.31452-0.62904-0.31452-0.31452-0.62904-0.31452,0.31452-0.62903-0.62903-0.94356,0.31451-0.62903-0.31451,0-0.31452,0.31451-0.31452-0.31451-0.31452,0,0.31452-0.62904-0.31452,0-0.62904,0-0.94355,0.31452,0.31452,0-1.5726,0.31452-0.94356,0.62903,0" fill="#616161"/>

  <path d="m114.48,71.884-0.31452,0.31452-0.94355,0-0.62904,0,0-0.31452,0.31452-0.31452,0.62903,0,0.62904,0.31452,0.31452,0" fill="#616161"/>

  <path d="m103.16,72.199-0.31452,0.31452-0.62904-0.31452-0.62904-0.31452,0-0.31452,0.62904,0,0.94356,0.31452,0.31451,0,0.31452,0.31452-0.62903,0" fill="#616161"/>

  <path d="m107.25,70.312,0.94356,0,0.94355,0,0.62904,0.31452,0.31451,0,0,0.31452,0.62904,0,0,0.31451,0.31452,0,0.62904,0.31452-0.31452,0.31452-0.62904,0-0.31452,0-0.31452,0-0.31451,0-0.31452,0-0.31452,0-0.31452,0-0.31452,0.62904-0.31451,0,0-0.31452-0.62904-0.31452-0.62904,0-0.31451,0-0.62904,0.31452-0.62904-0.31452,0.31452-0.31452,0.94356,0,0.62903,0,0.31452,0-0.31452-0.62903,0-0.31452-0.62903,0,0-0.31452,0.62903,0" fill="#616161"/>

  <path d="m290.3,71.57-0.94355,0.31452-0.94355-0.31452,0-0.62903,0.62903-0.62904,0.94356-0.31452,0.62903,0,0.31452,0.62904-0.62904,0.31452,0,0.62903" fill="#616161"/>

  <path d="m24.532,70.941-0.31452,0.31451-0.31452,0,0.31452-0.31451-0.31452-0.62904,0.31452,0,0-0.31452,0.31452,0,0.31452,0.31452,0.31452,0.31452-0.31452,0.31452-0.31452,0" fill="#616161"/>

  <path d="m23.903,69.368-0.31452,0.31451-0.31452-0.31451,0-0.31452,0.31452,0.31452,0.31452,0" fill="#616161"/>

  <path d="m23.274,69.054-0.62904,0,0.62904,0" fill="#616161"/>

  <path d="m22.331,68.739,0,0.31452,0-0.31452-0.31452,0-0.31452,0,0.31452-0.31452,0.31452,0.31452" fill="#616161"/>

  <path d="m20.758,68.11-0.31452,0.31452-0.31452-0.31452,0.31452-0.31451,0.31452,0,0,0.31451" fill="#616161"/>

  <path d="m100.33,67.481,0.31452,0.31452,0.94355,0,0.31452,0,0.94356,0.62903,0.62903,0.62904,0.31452,0,0.62904,0,0,0.31452,0.62903,0,0.62904,0.62903-0.62904,0.31452-0.62903,0-0.94356,0-1.2581,0,0.62904-0.62904-0.31452-0.31451-0.62904,0-0.31452-0.31452-0.31451-0.62904-0.62904,0.31452-0.94355-0.31452-0.31452-0.31452-1.2581,0-0.31452-0.31451,0.31452-0.31452-0.94356,0-0.62904,0.62903-0.62903,0-0.62904,0.31452-0.31452,0,0.62904-0.31452,0-0.62903,0.62904,0,0.31451-0.31452,0.94356,0,0.31452-0.31452,0.62903,0.31452,0.94356,0,0.94355,0.31452" fill="#616161"/>

  <path d="m102.53,66.538-0.31452,0-0.31452-0.62903-0.31452-0.31452,0.31452-0.62904,0.62904,0.94356,0,0.62903" fill="#616161"/>

  <path d="m300.99,67.481-0.31452,0.62903-0.62903-0.62903,0-0.94356,0.31452-0.94355,0.94355-0.62904,0.31452,0.31452,0,0.62904-0.62904,1.5726" fill="#616161"/>

  <path d="m102.22,63.707-1.2581,0,0-0.31452,0.31452,0,0.94355,0,0,0.31452" fill="#616161"/>

  <path d="m102.85,63.707,0,0.62904-0.31452-0.31452,0-0.31452-0.31452-0.31452,0-0.31452,0.62904,0.62904" fill="#616161"/>

  <path d="m314.52,56.158,0,0.31452-0.62903,0.62904-0.31452-0.31452-0.62904,0,0,0.62904-0.94355-0.31452,0.31452-0.31452,0.31451-0.62904,0.62904,0,0.31452-0.31451,0.94355,0.31451" fill="#616161"/>

  <path d="m214.5,54.586-0.62904,0.31452,0,0.31452-0.94355,0.31452-0.62904,0-0.31451-0.31452,0.62903-0.31452,0.31452,0,0.62904,0,0.94355-0.31452" fill="#616161"/>

  <path d="m203.49,54.586,0.62903,0.31452,0.62904,0,0.94355,0,0.31452,0,0,0.31452-1.5726,0,0.31452,0-1.2581-0.31452,0-0.31452" fill="#616161"/>

  <path d="m195.32,52.07-0.31451,0.62903,0.31451,0.31452-0.31451,0.62904-0.94356-0.31452-0.31452-0.31452-1.5726-0.31452,0.31452-0.62903,1.2581,0,0.94356,0,0.62903,0" fill="#616161"/>

  <path d="m189.03,48.925,0.62904,0.62903,0,1.5726-0.62904-0.31451-0.31452,0.31451-0.31452,0,0-1.2581-0.31451-0.62904,0.62903,0,0.31452-0.31451" fill="#616161"/>

  <path d="m320.81,53.013-0.31452,0.94356,0,0.31451-0.31452,0.62904-1.5726,0.62904-1.5726,0-1.5726,1.2581-0.62904-0.31452,0-0.94355-1.5726,0.31452-1.2581,0.31451-1.2581,0,0.94356,0.94356-0.62904,1.5726-0.62903,0.31452-0.31452-0.31452,0-0.94356-0.62904-0.31451-0.31452-0.62904,0.94356-0.31452,0.62903-0.62903,0.94356-0.31452,0.62904-0.94356,2.2016,0,0.94356,0,0.94355-1.5726,0.62904,0.31452,1.5726-0.94355,0.62903-0.31452,0.62904-1.2581-0.31452-1.2581,0.62904-0.62903,0.94355,0,0.62904,1.2581,0,0.94355-0.94355,0.94356,0,0.94355" fill="#616161"/>

  <path d="m189.34,47.981-0.31452,0.94356-0.31452-0.31452-0.31452-0.62904,0.31452-0.31452,0.62904-0.62903,0,0.94355" fill="#616161"/>

  <path d="m323.64,46.094,0.62904,0,0.94355-0.31452,0,1.2581-1.2581,0-0.94356,1.2581-1.5726-0.94355-0.62903,1.2581-0.94356,0-0.31452-0.94356,0.62904-0.94355,0.94355,0,0.31452-1.2581,0.31452-0.94356,1.2581,1.2581,0.62904,0.31452" fill="#616161"/>

  <path d="m116.37,43.578,0.62903,0.31452,0.94356,0-0.62904,0.31451-0.31452,0-1.2581-0.31451-0.31452-0.31452,0.62904-0.31452,0.31452,0.31452" fill="#616161"/>

  <path d="m118.26,41.062-0.62904,0-1.2581-0.31452-0.94356-0.31451,0.31452-0.31452,1.2581,0.31452,0.94356,0.31451,0.31452,0.31452" fill="#616161"/>

  <path d="m56.613,41.691-0.62904,0-1.5726-0.31452-0.31452-0.31452-0.94355-0.31452-0.31452-0.31451-0.94356-0.31452-0.31452-0.31452,0-0.31452,0.94356,0,0.62904,0.31452,0.94355,0,0.31452,0.31452,0.62904,0.62903,0.94355,0.31452,0.62904,0.62904" fill="#616161"/>

  <path d="m123.92,39.489-0.94355,0.94356,0.94355-0.31452,0.62904,0-0.31452,0.62903,0.62904,0,0.62903,0,0.94356,0.31452-0.31452,0.62904,0.62904-0.31452,0.31452,0.62904,0.31451,0.62903-0.62903,0.94356-0.31452,0-0.62904-0.31452,0-0.62904,0-0.31451-1.2581,0.94355-0.62904,0,0.62904-0.31452-0.94355-0.31452-0.94356,0-1.8871,0-0.31452-0.31451,0.62904-0.31452-0.31452-0.31452,0.62904-0.62904,1.2581-1.5726,0.62904-0.62903,0.62903-0.31452,0.62904,0-0.31452,0.31452-0.31452,0.62903" fill="#616161"/>

  <path d="m47.178,36.029,0.94355,0-0.31452,1.2581,0.94356,0.62904-0.31452,0-0.62904-0.31452-0.31452-0.62903-0.62904-0.31452,0-0.31452,0-0.31452,0.31452,0" fill="#616161"/>

  <path d="m323.32,39.489,1.2581,1.5726-1.5726-0.31452-0.62903,1.5726,0.94355,0.94355,0,0.62904-0.94355-0.31452-0.62904,0.62903,0-0.94355,0-0.94355,0-0.94356,0.31452-0.94355,0-1.2581-0.62904-0.94355,0-1.2581,0.94356-0.62904-0.31452-0.31452,0.31452-0.31452,0.31451,0.62904,0.31452,1.2581,0,0.94356,0.31452,0.94355" fill="#616161"/>

  <path d="m172.98,37.916-1.5726,0.62904-1.5726-0.31452,0.94356-0.94356-0.62904-0.94355,1.2581-0.94355,0.94356-0.31452,0.94355,0,0.94356,0.62903-0.62904,0.62904,0.31452,0.62904-0.94356,0.94355" fill="#616161"/>

  <path d="m192.49,34.457-0.62904,0.94356-0.94355-0.62904,0-0.31452,1.2581-0.31452,0.31452,0.31452" fill="#616161"/>

  <path d="m27.049,33.199-0.94355,0.31452-0.62904-0.31452,0-0.31452,0.62904-0.62904,0.62904,0,0.62904,0,0.62904,0.31452-0.94356,0.62904" fill="#616161"/>

  <path d="m176.76,31.626-0.94355,0.94355,0.94355,0,1.2581,0-0.31452,0.62904-0.94356,0.94355,0.94356,0,0.94355,1.5726,0.94356,0,0.62903,1.2581,0,0.31451,1.2581,0.31452,0,0.62904-0.62904,0,0.62904,0.62904-0.94356,0.62903-1.5726,0-1.5726,0.31452-0.31452-0.31452-0.94355,0.31452-0.62904,0-0.94355,0.31452-0.31452,0,1.2581-1.2581,0.94355,0-1.5726-0.31452-0.31451-0.31452,1.2581-0.31452-0.62904-0.62904,0-0.62903,1.5726,0,0.31452-0.31452-0.94355-0.62904-0.94356-0.31451-0.31452-0.31452,0.31452-0.31452-0.31452-0.31452-0.62903,0.31452,0-0.94355-0.62904-0.31452,0.62904-1.2581,0.62903-0.62903,0.94356,0,0.94355,0" fill="#616161"/>

  <path d="m14.468,30.368-0.62904,0-0.62904,0-0.62904-0.31452,0.94356-0.31452,0.94355,0.31452,0,0.31452" fill="#616161"/>

  <path d="m100.65,28.166-0.31452,0.31452-0.62903,0,0-0.31452,0.31451-0.31452,0.31452,0,0.31452,0.31452" fill="#616161"/>

  <path d="m98.13,27.537-1.2581,0.62904-0.62903,0-0.31452-0.31452,0.62903-0.62904,1.5726,0,0,0.31452" fill="#616161"/>

  <path d="m8.1775,26.279,0.62904,0.31452,0.62904,0,0.94355,0.31452,0.94356,0-0.94356,0.31451-0.62904-0.31451-0.31452,0-0.94355,0-0.31452,0,0-0.62904" fill="#616161"/>

  <path d="m94.67,24.392,0.31452,0.62904,0.62904-0.31452,0.31452,0.31452,1.2581,0.31452,1.2581,0.31451,0,0.62904,0.62904,0,0.62904,0.31452-0.62904,0.31452-1.5726-0.31452-0.62904-0.62904-0.94355,0.62904-1.5726,0.62903-0.31452-0.62903-1.2581,0,0.94355-0.31452,0-0.94355,0.31452-0.94356,0.62904,0" fill="#616161"/>

  <path d="m165.44,23.763-0.31452,0.62904,1.2581,0.62904-1.2581,0.94355-3.1452,0.62904-0.62904,0-1.5726,0-2.5161-0.31452,0.94355-0.62904-2.2016-0.31451,1.5726-0.31452,0-0.31452-1.8871,0,0.62903-0.62904,1.5726-0.31452,1.5726,0.62904,1.2581-0.31452,1.2581,0,1.8871-0.31452,1.5726,0" fill="#616161"/>

  <path d="m104.11,23.134-1.2581,0,0-0.62904,0.31452-0.31452,0.94355-0.31451,0.62904,0.31451,0,0.31452,0,0.31452-0.62904,0.31452" fill="#616161"/>

  <path d="m5.0323,23.763,0.62904,0-0.31452-0.62903,2.8307,0,1.8871,0.94355-0.94355,0.62904-1.5726,0,0,0.94355-0.62904,0.31452-0.94356,0-0.62904-0.31452-1.2581-0.31451-0.31452-0.62904-0.94355,0-1.2581,0-0.31452-0.31452,0-0.31452l-1.2584,0.315,0.62903,0.315-0.62903,0.629v-4.0887l2.5161,0.62904,2.5161,1.2581v0.62903" fill="#616161"/>

  <path d="m84.291,21.247-0.62904,0.31452-1.2581-0.31452-0.94356,0-1.2581-0.31452,0.94355-0.31452,0.62904-0.62903,0.94355,0.31451,0.62904,0.31452,0.31452,0,0.62904,0.62904" fill="#616161"/>

  <path d="m359.81,19.36-1.2581,0,0-0.31452,1.2581-0.31452,0,0.62904" fill="#616161"/>

  <path d="m1.2581,19.36-1.2581,0,0-0.62904,0.94355,0,1.5726,0.31452-0.31452,0-0.94355,0.31452" fill="#616161"/>

  <path d="m89.323,20.618,0,1.2581,1.2581-0.94356,1.2581,0.62904-0.31452,0.62903,0.94356,0.94356,1.2581-0.94356,0.62904-0.62903,0-1.2581,1.5726,0,1.2581,0.31452,1.5726,0.31452,0,0.62904-0.62903,0.62903,0.62903,0.31452-0.31452,0.62904-1.8871,0.62903-1.2581,0.31452-1.2581-0.31452-0.31452,0.31452-0.94355,0.94356-0.31452,0.31452-0.94356,0.62903-1.5726,0.31452-0.62904,0.31452,0,0.62903-1.2581,0-1.2581,0.94356-0.94356,1.2581-0.62904,0.62904,0,1.2581,1.5726,0,0.31452,0.94355,0.62904,0.94356,1.2581-0.31452,1.8871,0.31452,0.94355,0.62904,0.62904,0.31451,1.2581,0.31452,1.2581,0.31452,1.5726,0.31452,1.2581,0-0.31452,0.94355,0.31452,0.94356,0.62903,0.94355,1.5726,0.94356,0.62904-0.31452,0.62904-0.94356-0.31452-1.5726-0.94356-0.62903,1.5726-0.31452,1.2581-0.62904,0.62903-0.94355-0.31451-0.62904-0.62904-0.62904-1.2581-0.94355,1.2581-0.94355-0.31452-0.94356-0.31452-1.5726,0.62904-0.31452,1.5726,0.31452,1.2581,0.31452,0.62904-0.31452,0.94355,0.31452,1.2581,0.62903,0.31451,0.31452,1.8871,0,0,0.94356,0.31452,1.2581,0.94356,0,0.62903,0.62904,1.5726-0.62904,0.94356-0.94355,0.62903-0.62904,0.62904,0.94355,1.2581,1.2581,1.2581,1.2581-0.31452,0.62904,1.2581,0.62903,0.94355,0.62904,1.5726,0.31452,0.62904,0.31451,0.31452,0.62904,0.94355,0.31452,0.31452,0.31452,0,0.94355-0.62903,0.62904-0.94356,0.31452-1.5726,0.31451-1.2581,0.62904-1.5726,0.31452-2.2016-0.31452-1.5726,0-0.94356,0-0.94355,0.94355-1.2581,0.31452-1.2581,1.2581-1.2581,0.94355,0.94356,0,1.5726-1.2581,1.8871-0.94356,1.5726,0,0.94355,0.31452-0.94355,0.62904,0.31452,1.2581,0.31451,0.62904,1.2581,0.62903,1.5726-0.31452,1.2581-0.94355,0,0.62904,0.62904,0.31451-1.2581,0.62904-2.2016,0.62904-0.94356,0.31451-1.2581,0.94356-0.62904-0.31452,0-0.62904,1.5726-0.94355-1.5726,0-0.94355,0.31452,0,0.31452-0.94356,0.31451-0.94355,0.31452-1.2581,0.31452-0.62904,0.62904,0,0.31452,0,0.62903,0.31452,0.31452,0.31452,0,0-0.31452,0.31451,0.31452,0,0.31452-0.94355,0-0.31452,0-0.62903,0.31452-0.62904,0-0.62904,0-0.62903,0.31451,1.2581-0.31451,0.31452,0.31451-1.2581,0.31452-0.62904,0-0.31452,0,0.31452,0.31452-0.31452,0.62904-0.62904,0.62903-0.31451-0.31451-0.31452,0,0.31452,0.31451,0,0.31452,0,0.31452-0.31452,0.31452-0.31452,0.94355-0.31452,0,0.31452-0.62903-0.31452-0.62904-0.31452-0.62904,0,0.31452,0,0.62904-0.62903,0,0.94355,0.31452,0,0.94355,0.31452,0,0,0.31452,0,0.94355-0.62904,0.62904-0.94355,0.31452-0.62904,0.62903-0.62903,0-0.31452,0.62904-0.31452,0.31452-0.94355,0.62903-0.62904,0.31452-0.31452,0.62904-0.31452,0.62904,0.31452,0.94355,0.31452,0.62904,0.31452,0.94355,0,0.31452,0.62903,1.2581-0.31451,0.62904,0,0.31452,0,0.62903-0.31452,0-0.62904,0,0-0.31452-0.62903-0.31451-0.31452-0.94356-0.62904-0.62904,0-0.62903,0-0.62904-0.31452-0.31452-0.62903-0.94355-0.31452-0.31452-0.94356,0.62904-0.31452,0-0.62904-0.62904-0.62904-0.31452-0.94355,0.31452-0.94356,0-0.62904,0-0.62904,0,0.31452,0.31452,0,0.31452,0,0.31452-0.31452,0-0.62904,0.31451-0.62904-0.31451-0.62904-0.31452-0.94356,0-0.62904-0.31452-0.62904,0.31452-0.94356,0-0.94355,0.94355-0.94356,0.31452-0.62904,0.62904,0,0.31451,0,0.62904,0,0.62904,0,0.31452-0.31452,0.94355,0,0.62904-0.31452,1.2581,0,0.62904,0.31452,0.62903,0.31452,0.31452,0,0.94355,0.62904,0.62904,0.31452,0.62904,0.31452,0.31451,1.2581,0.31452,0.31452,0.31452,0.94356,0,0.62904-0.31452,0.94356,0,0.62904-0.31452,0.62904-0.31451,0-0.62904,0.31452-0.94355,0-0.31452,0.62904,0,1.2581-0.31452,0.62904,0,0.62904,0,0.31452,0,0,0.62904-0.62904,0.62903,0,0.62904,0,0.62903-0.31452,0.62904-0.31452-0.31452-0.31452,0,0,0.31452,0.31452,0,0,0.31452-0.31452,0.31452,0.31452,0.31452-0.31452,0.31451,0.31452,0-0.31452,0.62904-0.31452,0.31452-0.31452,0.31452,0.31452,0,0.31452,0,0.31452,0,0.31452,0,0.31452,0,0.62904,0,0.31452,0,0.31452,0,0.31452-0.31452,0.31452,0,0,0.31452,0.31452,0,0.31452-0.31452,0.31452,0.31452,0.31452,0,0.31452,0,0.31452,0.31451,0.31451,0.31452,0.31452,0-0.31452,0.31452,0.31452,0.62904-0.31452,0.31452,0,0.31451-0.31451,0.31452,0.31451,0.31452,0,0.62904-0.31451,0,0,0.31451,0,0.31452,0,0.31452,0,0.31452,0.31451,0.62904,0.31452,0.31451,0.62904,0.62904,0.31452,0.31452,0.31452,0.31452,0-0.31452,0.31451,0.31452,0.62904,0,0.31452-0.31452,0.62903-0.31452,0.31452,0,0.62904,0,0.62903,0,0.31452,0.31452,0.31452,0.31452,0.31452,0.31451,0.62904,0,0.62903-0.94355,0.31452,0,0.31452-0.31452,0-0.94355,0.62903-0.31452,0.62904,0,0-0.31452,0.94356,0,0.62903-0.31452,0.31452-0.31452,0.62904-0.31451,0.31451,0,0.31452,0.31451-0.31452,0.31452-0.62903,0.31452,0.31452,0.31452,0,0.62904-0.31452,0.62903,0.31452,0.62904,0.62903,0,0-0.62904-0.31452-0.31452,0-0.94355,1.2581-0.31452,0-0.62904,0.31451-0.31451,0.31452,0.94355,0.62904,0,0.62904,0.31452,0,0.62904,0.94355,0,1.2581-0.31452,0.31452,0.62903,0.94356,0,0.62903-0.31451,0-0.31452,1.2581,0,0.94356,0-0.62904,0.31452,0.31452,0.31451,0.62904,0.31452,0.94355,0.31452,0,0.94355,0.62904,0,0.31452,0,0.62903,0.62904,0.62904,0.62904,0,0.31451,0.31452,0,0.62903,0.62904,0.31452,0.31452,1.2581,0.31452,0.31452-0.31452,0.62904,0,0.94355,0.31452,0.62904,0,0.62904,0.31452,0.94355,0.94355,0.31452,0.31452,0.31452,0,0.31451,0.31452,0.31452,1.8871,0.62904,0.31451,0,0.62904-0.62904,0.62904,0.31452,0.31451,1.5726,0.31452,0.31452,0.94356,0.62904-0.62904,1.2581,0.31452,1.5726,0.62903,0.62904,0.62904-0.31452,0.62904,1.2581-0.31452,1.8871,0.31452,1.5726,0,1.5726,0.94355,1.2581,0.94356,0.62904,0.31451,0.94355,0,0.31452,0.31452,0.31452,1.2581,0.31452,0.62903-0.62904,1.8871-0.31452,0.62904-1.5726,1.2581-0.62903,1.2581-0.62904,0.94356-0.31452,0-0.31452,0.62903,0,1.8871,0,1.5726-0.31451,0.62904-0.31452,0.31452,0,1.2581-1.2581,1.2581,0,1.2581-0.94355,0.31452,0,0.62904-1.2581,0-1.5726,0.31452-0.62904,0.62903-1.2581,0.31452-0.94356,0.62904-0.94355,0.94355-0.31452,0.94356,0.31452,0.31451-0.31452,1.2581,0,0.31452-0.94355,0.62903-0.94356,1.8871-0.94355,0.62904-0.62904,0.62903-0.62903,0.94356-0.62904,0.31452-0.31452,0.62903-1.2581,0.62904-0.62904-0.31452-0.62903,0.31452-0.94356-0.62904-0.62904,0.31452-0.62903-0.62904,0,0.31452,1.2581,0.94356,0,0.62903,0.62904,0.62904,0,0.31452-1.2581,1.2581-1.2581,0.62904-2.2016,0.31451-0.94356-0.31451,0.31452,0.62903-0.31452,0.94356,0,0.31452-0.31452,0.31451-1.2581,0.31452-0.94355-0.31452-0.31452,0.31452,0,0.94356,0.94355,0.31451,0.31452-0.31451,0.31452,0.31451-0.94356,0.31452-0.62903,0.62904-0.31452,0.94355,0,0.62904-0.94356,0-0.94355,0.62904-0.31452,0.62903,0.94356,0.94356,0.94355,0-0.31452,0.94355-0.94355,0.62904-0.94356,1.2581-0.62903,0.31452-0.62904,0.31452,0.31452,1.2581,0.62904,0.31452-0.31452,0-0.94356,0-0.31452,0.31452-0.94355,0.31451-0.31452,0.94356-0.31452,0-1.2581-0.31452-0.94355-0.62904-1.2581-0.62903-0.31451-0.62904,0.31451-0.62904-0.62903-0.62903,0-1.5726,0.31452-0.94356,0.94355-0.94355-1.2581-0.31452,0.94355-0.94355,0.31452-1.5726,0.94356,0.31452,0.62903-1.8871-0.62903-0.31451-0.31452,1.2581-0.62904-0.31452,0.31452-1.2581,0.31452-1.8871,0.31452-0.62904-0.31452-0.94355,0-1.2581,0.31452,0,0.62903-1.5726,0.94356-1.5726,0.31451-1.5726-0.31451-1.5726,0.31451-0.62903,0-1.2581,0.62904-1.2581,0-1.8871,0.31452-2.2016,0.31452-2.2016,0-1.5726-0.31452-1.5726-0.94356-0.31452,0-0.62904-1.8871-0.94355-1.8871-0.94356-0.94356-0.62903-0.31452-0.94356,0.31452-0.31452-0.94355-1.2581-0.94356-1.8871-0.94355-1.8871-0.31452-0.62903-0.31452-0.62904-0.94355-0.62903-0.62904-0.31452,0.31452-0.62904-0.62904-0.94355,0.31452-0.62904,0.94356-0.62904,0.31451-0.62903,0-0.62904-0.31451,0.62904-0.62904-0.62904,0-0.31452,0-0.94355,0.31452,0,0-0.62904,0.62903-0.62903-0.31451-0.31452,0.62903-0.31452,0.62904-0.31452,0-0.31452,0.31452-0.31451,0-0.31452,0.31451-0.31452,0.31452,0,0.62904-0.62904,0.31452-0.62903-0.31452-0.31452,0-0.62904,0-0.94355,0-0.94356-0.62904-0.62903-0.31452-0.31452,0-0.62904,0.31452,0-0.31452-0.31452-0.31451-0.31451-0.31452-0.31452-0.62904,0.31452,0,0.31451-0.62903,0.31452-0.31452,0,0.62903,0.62904-0.31451,0.31452-0.31452,0-0.31452,0-0.31452-0.62904,0,0.31452-0.31452,0-0.31451-0.62904-0.31452,0-0.31452,0-0.31452,0-0.31452,0-0.31452-0.31452-0.31451,0,0-0.31451,0-0.31452-0.31452,0-0.31452-0.31452-0.31452,0,0-0.31452-0.31452-0.31452,0,0.31452,0,0.31452-0.31452-0.31452-0.31452,0-0.31452-0.31452,0-0.31451,0.31452-0.31452-0.31452-0.31452,0.31452,0-0.31452-0.31452-0.62904-0.31452-0.31452-0.62903-0.31452-0.31452-0.62904-0.31452,0.31452,0,0.31452,0-0.31452-0.31452-0.31452,0-0.62904,0-0.31452,0-0.62904-0.31452-0.31452,0-0.31452-0.31451-0.62904,0-0.62904,0-0.31452-0.31452-0.62904-0.31452-1.2581-1.2581-0.31452-0.31452-0.94356,0-0.62904,0-0.62904,0.31452-0.62904,0-0.62904,0-0.62904-0.31452-0.94356-0.62904-0.94355,0-0.94356-0.31452-0.94355-0.62903-0.31452-0.31452-0.62904,0-0.94355-0.31452-0.31452-0.31452-1.2581-0.62903-0.31452-0.62904-0.31452-0.62904,0.31452,0,0-0.31451,0-0.31452,0-0.31452-0.31452-0.31452,0-0.62903-0.31452-0.31452-0.94356-0.94356-0.94355-0.94355-0.31452-0.62904-0.94356-0.31452-0.31452-0.31451,0.31452-0.62904-0.62904-0.31452-0.62904-0.31452-0.31452-0.62903-0.31452-0.31452-0.62904-0.31452-0.62904-0.62904,0-0.31451-0.31452-0.62904-0.62904-0.94355,0-0.31452-0.62904-0.31452-0.31452,0-0.62904-0.31452,0,0.31452,0,0.62904,0.31452,0.62903,0.31452,0.62904,0.62904,0.62903,0.31452,0,0,0.31452,0,0.31452,0.31452,0,0.31452,0.62904,0.31452,0.31451,0,0.31452,0.62904,0.31452,0.31452,0.94356,0.31452,0.62903,0.31452,0.31452,0,0.62904,0.62904,0,0.31452,0.31451,0.31452,0.62904-0.31452,0.62904-0.31452,0,0-0.62904-0.94356-0.62904-0.62904-0.62903-0.31452-0.31452,0-0.62904-0.31452-0.62903-0.31452-0.31452-0.94356-0.31452-0.31452,0-0.62904-0.31452-0.62904-0.62903,0.31452,0,0.31452,0,0.31452-0.31452,0-0.62904-0.62904-0.62903-0.62904-0.31452-0.31452-0.62904-0.31452-0.62903-0.62904-0.62904-0.31452-0.94356-0.31452-0.62903-0.62904-0.62904-0.31452,0-0.31452-0.31452-0.31452,0-0.62904-0.31451-0.94355,0,0-0.31452-0.31452-0.62904-0.94356-0.94355-0.62904-1.2581,0-0.31451-0.62904-0.31452-0.62904-0.94356-0.31452-0.62903-0.31452-0.62904,0-0.94355,0-0.62904-0.31452-0.94355,0.62904-0.94356,0-1.8871,0-1.2581-0.31452-0.94355-0.31452-0.31452,0-0.31452,1.5726,0.31452,0.31452,0.94355,0.31452,0,0-0.94355-0.31452-0.94356-0.31452,0-1.8871-0.94355-0.62904-0.31452-1.8871-0.31452-0.62904-0.94355,0.31452-0.62904-1.2581-0.62904-0.31452-0.62903-1.2581-0.62904,0-0.62903-0.62904-0.31452-0.62904-0.31452-0.31452-0.94355-1.2581-0.94356-0.62904-0.94355-0.94355,0-1.5726,0-1.2581-0.31452-1.8871-0.94356-1.2581-0.31451-1.5726-0.31452-1.2581,0-2.2016-0.31452-0.94356-0.31452-1.2581,0,0.31452,0.94356-0.62904,0-1.2581,0-0.94356,0.31451-0.94355,0.31452-0.31452-0.62903,0.62904-0.94356,0.94356-0.31452-0.31452-0.31452-1.2581,0.62904-0.62904,0.62904-1.2581,0.94355,0.62904,0.31452-0.94355,0.62904-1.2581,0.62903-0.94355,0.31452,0,0.31452-1.5726,0.62904-0.31452,0.31451-1.2581,0.62904-0.62904-0.31452-0.94356,0.31452-1.2581,0.31452-0.62904,0.31452-1.8871,0.31451,0.94355-0.62903,0.94356-0.31452,1.2581-0.62904,1.2581,0,0.31452-0.31451,1.5726-0.62904,0-0.31452,0.94355-0.31452,0-0.62903,0.62904-0.62904-1.2581,0.31452-0.31452-0.31452-0.31452,0.31452-0.94356-0.31452,0,0.31452-0.62904-0.62904-0.94356,0.62904-0.62904,0,0-0.62904,0.31452-0.31452-0.62904-0.62903-1.5726,0.31452-0.62904-0.31452-0.62904-0.31452,0-0.62904-0.94356-0.31452,0.31452-0.62903,0.94356-0.62904,0.31452-0.62903,0.94355,0,0.62904,0.31451,0.62904-0.62903,0.94355,0,0.62904-0.31452,0-0.31452-0.62904-0.31452,0.62904-0.31451-0.62904,0-0.94355,0.31451-0.31452,0.31452-0.94356-0.31452-1.2581,0-1.5726,0-0.31452-0.62903-1.2581-0.62904,1.2581-0.31452,2.2016-0.31452,0.94355,0,0,0.31452,1.8871,0-0.62904-0.62903-1.2581-0.31452-0.94355-0.62904-0.94356-0.31452-1.2581-0.31451,0.62904-0.62904,1.5726,0,1.5726-0.31452,0-0.62904,1.2581-0.31451,0.94356-0.31452,1.8871-0.31452,0.94355,0,1.2581-0.62904,1.5726,0.31452,0.94356,0.31452,0.31452,0,1.5726,0,0,0.31452,1.5726,0,0.94356,0,2.2016,0.31452,1.8871,0,0.62904,0.31451,1.5726-0.31451,1.5726,0.31451,0.94355,0.31452,1.8871,0,1.5726,0.62904,0.94355,0,0.94356-0.31452,1.2581-0.31452,1.5726,0,1.2581-0.31452,1.8871-0.31451,0.62904,0.31451,0.62904,0,0.31452-0.62903,0.62904,0,1.5726,0.94355,1.5726-0.62903,0,0.94355,1.2581-0.31452,0.31452-0.31452,1.2581,0,1.5726,0.62904,2.2016,0.31452,1.5726,0,0.94355,0,1.2581,0.62904-1.2581,0.31451,1.5726,0.31452,2.8307,0,0.94355-0.31452,0.94355,0.62904,0.94356-0.62904-0.94356-0.31451,0.62904-0.31452,1.2581,0,0.94356-0.31452,0.62904,0.31452,0.94356,0.62903,1.2581,0,1.8871,0.31452,1.5726,0,1.2581,0,0-0.62903,0.94356-0.31452,1.5726,0.31452,0,0.94355,0.62904-0.62904,0.62904,0,0.62904-0.94355-1.2581-0.62904-1.2581-0.62903,0.31452-0.94356,0.94356-0.62903,1.5726,0,0.94355,0.31451,1.2581,1.2581-0.94356,0.62903,1.8871,0" fill="#616161"/>

  <path d="m65.734,17.158-0.31452,0.31452,2.2016-0.31452,1.2581,0.62904,1.2581-0.62904,0.94355,0.31452,0.62904,0.94356,0.62904-0.31452-0.62904-0.94356,0.62904-0.31451,0.94355,0.31451,1.2581,0.31452,0.62904,0.94356,0.31452,0.94355,1.5726,0.31452,1.8871,0.62903,0,0.31452-1.5726,0,0.62904,0.31452-0.62904,0.62904-1.5726-0.31452-1.8871-0.31452-0.94356,0-1.8871,0.62904-3.1452,0-1.2581,0-0.62904-0.31452-1.2581-0.31452-0.94355,0-1.2581-0.62904,0.62904-0.31451,1.5726,0,1.5726,0,1.2581,0-1.8871-0.31452-2.2016,0-1.5726,0-0.31452-0.31452,2.2016-0.31452-1.5726,0-1.5726-0.31452,0.62904-0.94355,0.62904-0.31452,2.8307-0.62903,0.94356,0.31451" fill="#616161"/>

  <path d="m75.484,16.844-0.94356,0.62903-1.5726-0.62903,0.31452-0.31452,1.2581,0,0.94356,0.31452" fill="#616161"/>

  <path d="m103.48,17.158,0.31452,0.31452-1.2581,0-0.94356,0-1.2581,0-0.31452,0-0.94355-0.62903,0-0.31452,0.62904,0,2.2016,0,1.5726,0.62903" fill="#616161"/>

  <path d="m93.412,17.158,0.62904,0.62904,0.94356-0.94355,2.5161-0.31452,1.8871,0.94355-0.31452,0.62904,2.2016-0.31452,0.94355-0.31452,2.2016,0.62904,1.2581,0.31452,0.31452,0.31451,1.5726,0,1.2581,0.62904,2.2016,0.31452,0.94355,0.31452,0.94356,0.94355-1.8871,0.62904,2.5161,0.62903,1.5726,0.31452,1.2581,0.62904,1.5726,0.31452-0.31452,0.62903-1.5726,1.2581-1.2581-0.62904-1.5726-0.94356-1.2581,0.31452-0.31451,0.31452,1.2581,0.62904,1.2581,0.62903,0.31452,0.31452,0.62904,0.94356-0.31452,0.62903-1.2581-0.31452-2.5161-0.62903,1.5726,0.62903,0.94355,0.62904,0.31452,0.31452-2.8307-0.31452-2.2016-0.62904-1.2581-0.31451,0.62904-0.31452-1.5726-0.62904-1.5726-0.31452,0,0.31452-2.8307,0-0.94355-0.31452,0.62903-0.62903,1.8871,0,2.2016-0.31452-0.31452-0.31452,0.31452-0.62904,1.2581-0.94355-0.31452-0.31452-0.31451-0.31452-1.5726-0.62903-1.8871-0.31452,0.62903-0.31452-1.2581-0.62904-0.62904,0-0.94355-0.31451-0.62904,0.31451-1.5726,0-3.7742,0-2.2016-0.31451-1.5726-0.31452-0.62904-0.31452,0.94355-0.31452-1.5726,0-0.31452-0.94355,0.94356-0.94356,0.94355-0.62903,2.5161,0-0.62904,0.62903" fill="#616161"/>

  <path d="m79.573,16.215,1.2581,0.31452,1.8871,0,0,0.31452-0.94355,0.31451,1.5726,0.62904,0,0.62904-1.8871,0.62903-0.94355-0.31452-0.62904-0.31451-2.5161-0.62904,0-0.31452,2.2016,0-1.2581-0.62903,1.2581-0.62904" fill="#616161"/>

  <path d="m323.32,16.844-1.5726,0-1.8871,0-0.31452,0,0.94356-0.31452,1.2581-0.31452,1.5726,0.62904" fill="#616161"/>

  <path d="m86.807,17.473-1.2581,0.62904-0.94355,0-0.62904-0.94356,0-0.31451,0.62904-0.62904,0.94355,0,1.8871,0,1.8871,0-1.2581,0.94355-1.2581,0.31452" fill="#616161"/>

  <path d="m59.444,18.731-2.5161,0.62904-0.62904-0.62904-2.2016-0.31451,0.31452-0.31452,0.62904-0.94356,0.94355-0.62903-0.94355-0.62904,3.4597,0,1.2581,0,2.5161,0,1.2581,0.31452,0.94355,0.62904-1.2581,0-2.5161,0.94355-1.2581,0.62904,0,0.31451" fill="#616161"/>

  <path d="m330.56,15.271-1.2581,0.31452-1.5726-0.31452-1.8871-0.31451,0.31451-0.31452,1.8871,0.31452,2.5162,0.31451" fill="#616161"/>

  <path d="m86.492,15.271-0.62904,0.31452-1.5726,0-1.2581-0.31452,0.62904-0.31451,1.5726-0.31452,0.62904,0.31452,0.62904,0.31451" fill="#616161"/>

  <path d="m324.9,14.642-0.94355,0.62903-3.4597,0-1.8871,0.31452-1.8871-0.62903,0.62904-0.62904,1.2581-0.31452,2.5161,0,3.7742,0.62904" fill="#616161"/>

  <path d="m81.46,13.384,0.62904,0.62903,0.31452,0.31452-0.62904,0.94355-1.5726,0-1.2581,0,0-0.62903-1.5726,0,0-0.62904,0.94356,0,1.5726-0.31452,1.5726,0,0-0.31451" fill="#616161"/>

  <path d="m71.71,14.013,0.31452,0.31452,0.94355,0,1.2581,0,0,0.31452-0.62904,0.62903-3.4597,0-2.5161,0.62904-1.2581,0-0.31452-0.31452,2.2016-0.62903-4.7178,0.31451-1.2581-0.31451,1.2581-0.94356,0.94355-0.31452,2.8307,0.31452,1.8871,0.62904,1.5726,0-1.2581-0.94356,0.94355-0.31451,0.94356,0,0.31452,0.62903" fill="#616161"/>

  <path d="m237.46,19.36-0.62904,0.31452-3.4597-0.31452,0-0.31452-1.8871-0.31452-0.31452-0.62903,1.2581,0,0-0.62904,1.8871-0.94355-0.94355,0,2.5161-0.94356-0.31451-0.31452,2.2016-0.62903,3.1452-0.62904,3.4597-0.31452,1.5726-0.31451,1.8871,0,0.94356,0.31451-0.62904,0.31452-3.7742,0.31452-2.8307,0.62904-3.1452,0.94355-1.5726,0.94356-1.5726,0.94355,0.31452,0.94355,1.8871,0.62904" fill="#616161"/>

  <path d="m85.234,13.07,1.2581,0.31452,1.8871,0,0.94355,0.31451-0.31452,0.31452,1.2581,0.31452,0.62904,0.31452,1.2581,0,1.2581,0,1.8871,0,1.8871-0.31452,1.5726,0.31452,1.2581,0.31452,0,0.31451-0.62903,0.31452-1.2581,0.31452-1.5726-0.31452-2.8307,0.31452-1.8871,0-1.5726-0.31452-2.8307-0.31452-0.31452-0.31451,0-0.62904-0.94355-0.31452-2.2016-0.31452-1.2581-0.31451,0.62904-0.31452,1.8871,0" fill="#616161"/>

  <path d="m63.847,12.44-0.31452,0.94356-0.62904,0.31451-0.94356,0-1.8871,0.31452-1.5726,0.31452-1.2581-0.31452,1.5726-0.62903,2.2016-0.62904,1.2581,0,1.5726-0.31452" fill="#616161"/>

  <path d="m286.84,13.384,0.31451,0.31451,0.94356-0.31451,2.8307,0,2.2016,0.62903,0.94355,0.31452-0.31452,0.62904-1.2581,0.31451-2.5161,0.31452-0.62904,0.31452,0.94355,0.31452,1.5726,0.31452,0.94355-0.31452,0.62904,0.62904,0.31451-0.31452,1.5726,0,3.1452,0,0.31451,0.62903,4.0887,0,0.31452-0.62903,1.8871,0,1.5726,0,1.8871,0.62903,0.31452,0.62904-0.62904,0.31452,1.2581,0.94355,1.5726,0.31452,0.94356-0.94355,1.5726,0.31451,1.8871-0.31451,1.8871,0.31451,0.62903,0,1.5726,0-0.62903-0.94355,1.2581-0.31452,9.121,0.62904,0.94355,0.62903,2.5162,0.62904,4.0887-0.31452,1.8871,0.31452,0.94355,0.31452-0.31451,0.94355,1.2581,0,1.5726,0,1.5726,0,1.8871,0,1.8871,0,1.8871,0.94356,1.2581-0.31452-0.94355-0.62904,0.62903-0.62903,3.1452,0.31451,1.8871,0,2.8307,0.62904,1.5726,0.31452,0,4.0887-1.2581,0.31451-1.2581,0,0.62904,0.31452,0.62903,0.94356,0.62904,0.31451,0,0.31452-0.31452,0.31452-1.8871-0.31452-2.5161,0.94356-0.94356,0-1.5726,0.62903-1.5726,0.62904-0.31452,0.62904-1.2581-0.62904-2.8307,0.62904-0.31452-0.31452-0.94356,0.31452-1.2581,0-0.31452,0.62903-1.2581,0.94356,0,0.31451,0.94356,0.31452,0,1.5726-0.94356,0-0.31452,0.62904,0.31452,0.62904-1.8871,0.31451-0.31452,1.2581-1.2581,0.31451-0.31452,0.94356-1.5726,0.94355-0.31452-0.62903-0.31451-1.5726-0.62904-2.2016,0.31452-1.2581,0.94355-0.62904,0-0.62904,1.5726,0,1.8871-1.2581,1.5726-1.2581,1.8871-0.62904,0.94356-1.5726-1.2581,0.31452-0.62903,0.62904-2.5162,1.2581-0.94355-1.2581-2.5162,0.31451-2.5161,1.5726,0.94355,0.62903-2.5161,0.31452-1.2581,0,0-0.62904-1.5726,0-1.2581,0.31452-3.1452,0-3.1452,0-3.4597,2.2016-3.7742,2.2016,1.5726,0.31451,0.62904,0.62904,0.94355,0,0.62904-0.31452,0.94355,0,1.5726,0.94356,0,0.94355-0.62903,0.94356-0.31452,1.2581-0.31452,1.5726-1.5726,1.5726-0.31452,0.62904-1.2581,1.2581-1.2581,0.94355-0.94356,0.62904-1.2581,0.62904-0.62904,0-0.62903-0.31452-1.2581,0.62903-0.31451,0.31452-0.31452,0-0.31452,0.31452-0.31452,0.31452,0,0.62903-0.62903,0.31452-0.31452,0.31452-0.62904,0.31452-0.62903,0.31452,0,0.31452,0.31451,0.31451,0.62904,0.31452,0.62904,1.2581,0.31451,0.62904,0,1.2581-0.31451,0.62904-0.94356,0-0.62903,0.62904-0.94356,0-0.31452-0.62904,0.31452-0.62904-0.31452-1.2581,0.62904,0-0.62904-0.94355-0.62903,0-0.31452,0-0.31452,0-0.31452-0.31452,0.31452-0.31452,0.31452-0.31452,0-0.62903,0-0.31452-0.62904,0-0.31452-0.31452-1.5726,0.31452-0.62903,0.62903-0.94356,0,0.31452-0.31451,0-0.31452,0.62904-0.62904-0.62904-0.62904-0.62904,0.31452-1.2581,0.62904-0.62904,0.62904-0.94355,0.31451-0.62904,0.31452,0.62904,0.62904,0.94355,0.31452,0,0.31451,0.62904,0.31452,1.2581-0.62903,0.94356,0.31451,0.62903,0,0,0.62904-1.2581,0.31452-0.62903,0.31452-0.94356,0.62903-0.31452,0.62904,0.94356,0.62904,0.31452,0.94355,0.62903,0.94355,0.62904,0.62904,0,0.94356-0.62904,0.31451,0.31452,0.31452,0.62904,0.31452-0.31452,0.94355,0,0.62904-0.62904,0.31452-0.94355,0.94355-0.62904,1.2581-0.94355,1.2581-1.2581,0.94355-1.5726,0.94356-0.94355,0-0.62904,0.31452-0.31452-0.31452-0.62903,0.62903-1.5726,0.62904-0.94356,0-0.31452,0.94355-0.62903,0.31452-0.31452-0.94355,0.31452-0.31452-1.2581-0.31452-0.62904,0.31452-1.2581,0.62904-0.94356,0.94355,0,0.94355,0.62904,0.94356,0.94355,1.2581,0.94356,0.62904,0.62903,0.94355,0.31452,1.5726,0,1.8871-0.94355,0.62904-0.94356,0.62904-0.94355,0.94355-1.2581,0.94355-0.31452-0.62903,0.31452-0.62904-0.94356-0.62903-0.62903-0.31452-0.62904-0.31452-0.31452-1.2581-0.94355-0.31452-0.94356,0,0.31452-0.94356-0.94355,0,0,1.2581-0.62904,1.5726-0.31452,0.62903,0,0.94356,0.62904,0,0.62903,0.94355,0,0.62904,0.62904,0.62903,0.62904,0.31452,0.31451,0.31452,0.31452,0.31452,0.62904,0.62904,0.31452,0.62903,0.31452,0.62904-0.31452,0.31452,0.31452,0.31451,0,0.62904,0.31451,0.31452,0.31452,0.94355,0,0.31452-0.62903,0-0.94356-0.62903-1.2581-0.94356,0-0.31452-0.62904-0.62903-0.31452-0.94356-0.31451-0.62903,0.31451-0.62904-0.31451-0.31452-0.31452-0.62904-0.31452-0.31451-0.62904-0.62904-0.31451-0.62904-0.31452,0.62904,0-0.31452,0-0.62903,0.31452-0.94356,0-0.94355,0.31451-0.62904-0.31451-0.62904,0-1.2581-0.31452-0.31452-0.31452-1.2581-0.31452-1.2581-0.31452-0.94356-0.62903,0.62904-1.2581,0.62904-0.62903,0-0.62904-0.31452,0.31452-1.2581,0-0.94356-0.94356-0.94355,0.31452-0.62904-0.62903,0-0.94356-0.94355,0-0.31452-0.31452-0.62904,0-0.31452-0.62903-0.62903-0.94356,0,0.31452,0.31452-0.31452,0.62903-0.62903-0.31452,0,0.31452-0.31452-0.31452-0.31452,0-0.31452,0.31452-0.62903,0-1.2581,0.31452,0,0.62904-0.31451,0.62903-1.5726,0.62904-0.94355,1.2581-0.94355,0.62904-0.94356,0.62903,0,0.31452-0.62903,0.31452-0.62904,0.31452-0.62904,0.31452-0.31452,0.62903,0.31452,1.2581,0,0.94355-0.31452,0.94355,0,1.5726-0.62903,0-0.31452,0.94355,0.31452,0.31452-0.94356,0.31452-0.31451,0.62903-0.62904,0.31452-0.94356-0.94355-0.31451-1.5726-0.31452-0.94356-0.62904-0.31452-0.31452-0.94355-0.31451-1.2581-0.31452-0.62904-0.62904-1.5726-0.62903-1.8871-0.31452-1.2581,0-1.2581,0-0.94355-1.5726,0.62904-0.62904,0-1.2581-1.2581,0.31452-0.31451-0.31452-0.31452-0.94356-0.94356-0.94355-0.31452-0.31452-0.62903-0.62904-0.94356-1.8871,0.31452-1.5726,0-1.5726,0-1.8871-0.31452-0.94355,0-1.2581-0.31451-0.31452-1.2581-0.62904,0-0.62903,0-0.94356,0.62904-1.2581-0.31452-0.94355-0.94355-0.94356,0-0.62904-0.94356-0.94355-1.5726-0.62904,0.31452-0.62903-0.31452-0.31452,0.31452-0.62904,0,0.31452,0.31452,0,0.31452,0.31452,0.62903,0.31452,0.94356,0.62903,0.31451,0,0.31452,0.62904,0.31452,0,0.62904,0,0.31452,0.31452,0.31451,0,0.31452,0.31452,0.31452,0-0.62904,0.31451-0.62903,0.31452,0,0.31452,0.31452,0,0.62903-0.31452,0.62904,0.31452,0.31452,0.31452,0.31451,0.62904-0.31451,0.94355,0,0.62904,0,0.62903-0.62904,0.62904-0.62904,0.62903-0.62903,0.31452-0.31452,0,0.62904,0,0.94355,0.62904,0.62904,0.31452,0.31451,0.94355,0.31452,0.62904,0,0.31452,0.62904,0.31451,0.31452,0.31452,0,0,0.31452-0.31452,0.62903-0.31451,0.31452-0.31452,0.31452-0.31452,0.62903-0.62904,0,0,0.31452-0.31451,0.31452,0.31451,0.62904-0.31451,0.31451-0.31452,0-0.62904,0.31452-0.31452,0.62904-0.62903,0-0.31452,0.31452,0,0.31452-0.62904,0.31451-0.62903,0-0.62904,0.31452-0.31452,0-0.94355,0.31452,0,0.31452,0,0.62903-0.94356,0.31452-1.8871,0.31452-0.62903,0.94356-0.62904,0-0.31452,0-0.62903,0.31451-0.62904,0.31452-0.62904,0-0.31451,0-0.31452,0.31452-0.31452,0,0,0.31452-0.62904,0-0.31451,0-0.62904,0-0.31452-0.62904,0-0.62903,0-0.31452-0.31452-0.62904-0.31452-0.31452,0.31452,0,0-0.62903,0-0.62904-0.31452-0.31452-0.31451-0.31452,0-0.31451-0.31452-0.62904-0.62904-0.62904-0.31452-0.94355-0.62903-0.62904-0.62904-0.31452-0.62904-0.94355,0-0.62904,0-0.62903-0.62903-0.94356-0.31452-0.31452-0.62904-0.31451-0.31451-0.62904,0-0.31452-0.31452-0.31452-0.31452-0.31451-0.31452-0.62904-0.62903-0.94356-0.31452-0.62903-0.62904,0,0-0.62904,0.31452-0.31452,0-0.31451,0-0.31452-0.31452,0.62903-0.31452,0.62904-0.31452,0.62904-0.31451-0.31452-0.62904-0.31452-0.62904-1.5726,0,0.31452,0.31452,0.94355,0.62904,0.94356,0.62903,1.5726,0.31452,0.62903,0.31452,0.62904,0.94356,0.94355,0,0.31452,0,0.62904,1.2581,0.94355,0.31452,0.94356-0.31452,0.31452,0.31452,0.94355,0.31451,1.2581,0.31452,0.31452,0.62904,0.31452,0.62903,1.2581,0.31452,0.62904,0.31452,0.62903,1.5726,0.94356,0.62904,0.62904,0.31452,0.62903,0.31451,0.31452,0.62904,0.31452,0.31452,0.31452-0.31452,0.31451-0.31452,0.31452,0.31452,0.31452,0.31452,0,0.31452,0.62904,0.31452,0.31452,0.62903,0,0.94356-0.31452,0.94355,0,0.94355-0.31452,0.62904,0,0.31452-0.31452,0.31452,0,0.31452,0,0.62903-0.31452,0.62904,0,0.31452-0.31452,0.31451,0,0,0.31452,0,0.62904,0,0.31452-0.31451,0.31452,0,1.2581-0.62904,0.94355-0.62904,1.2581-0.94355,1.5726-0.62904,1.2581-1.2581,1.2581-0.94355,0.94356-1.5726,0.94355-0.94356,0.62904-0.94355,1.2581-0.31452,0.62903-0.31452,0-0.62904,0.62904-0.31451,0.31452-0.31452,0-0.31452,0.62904-0.31452,0.62903,0,0.62904-0.62904,0.31452-0.31451,1.2581,0,0.62904,0.62903,0.31451,0,0.31452-0.31452,0.62904,0.31452,0.31452-0.31452,0.31451,0.62904,0.62904,0.31452,0.94355,0.31452,0.31452,0.31452,0.31452-0.31452,0.94356,0.31452,0.94355,0,1.5726,0,0.62904,0,0.62903-0.62904,0.62904-0.62904,0.62904-0.94355,0.31451-0.94356,0.62904-1.2581,0.94355-0.31452,0.31452-0.62903,0.62904-0.62904,0.31452,0,0.62903,0.62904,0.94356,0,0.31452,0,0.31451,0.31452,0,0,0.94356-0.31452,0.62904,0.31452,0,0,0.62903-0.62904,0.31452-0.62904,0.31452-1.2581,0.62903-0.62904,0.31452,0.31452,0.31452,0.31452,0-0.31452,0.62904-0.31452,0.62903,0,0.94356-0.31451,0.31452-0.62904,0.62903-0.31452,0-0.31452,0.62904-0.31452,0.62903-0.62903,0.62904-0.94356,0.94356-0.62903,0.62903-0.94356,0.62904-0.94355,0.31452-0.62904,0,0,0.31451-0.62903-0.31451-0.62904,0.31451-0.94355-0.31451-0.62904,0.31451-0.31452,0-1.2581,0.31452-0.62904,0-0.62903,0.62904-0.62904,0-0.31452-0.31452-0.31452,0-0.62903-0.62904,0,0.31452,0-0.31452,0-0.62903-0.31452-0.62904,0.31452-0.31452,0-0.62903-0.62904-0.94356-0.62904-0.94355-0.62903-1.2581-0.62904-0.94356-0.62903-0.62904,0-0.94355-0.31452-0.62904-0.31452-1.5726,0-1.2581-0.31452-0.62904-0.31452-0.31451-0.62903-0.94356-0.31452-0.94355-0.31452-0.62904-0.94355-1.2581,0-0.62904,0-0.62903,0-0.94356,0.31451-0.94355,0.31452-0.31452,0.31452-0.94356,0-0.31451,0.62904-0.62904,0.31451-0.62904,0.31452-0.62903-0.31452-0.62904-0.31451-0.31452,0-0.62903-0.31452-0.62904,0.31452-0.62904-0.31452-0.94355-0.31452-0.62904-0.31452-0.62903,0-0.31452,0-0.31452-0.31452-0.62904-0.94355-0.94355-0.94355-0.94355-0.62904-0.94356-0.62904-0.94355,0-0.31452,0.31452-0.31452,0-0.94355,0.31452-0.62904,0-0.31452,0.31452-0.94355,0-0.94356-0.31452-0.62903-0.62904,0,0-0.62904-0.31452,0,0-0.31452-0.94355,0.31452-0.62904,0-0.31451,0.31452-0.62904,0-0.62904-0.62904-0.31452-0.94355-0.62903-0.62904-0.94356,0-0.94355,0-0.62904,0.31452-0.94355,0-1.5726,0.62904-0.31452,0.31451-0.94355,0.31452-0.94356-0.31452-0.62904,0-0.62903,0-0.62904,0-1.2581,0-0.62904,0.31452-0.94355,0.31452-0.31452,0-1.2581-0.31452-0.94356-0.94355-0.62903-0.31452-0.62904-0.62904-0.31452-0.31452-0.94355-0.31451-0.31452-0.62904-0.31452-0.31452,0-0.62903-0.62903-0.62904-0.31452-0.31452-0.31452-0.31452-0.31452-0.62903-0.31452-0.31452-0.62903-0.31452-0.31452-0.31452-0.31452,0,0-0.31452-0.31452-0.31451-0.31452-0.94356,0.31452-0.31452-0.31452-0.94355-0.62903-0.31452,0.31452,0,0.62903-0.94355,0.31452-0.31452-0.31452-0.62904,0.31452-0.31452,0.31452-0.94355-0.31452-1.2581,0-0.31452,0-0.62904-0.31452-0.31452-0.31452-0.62903,0-0.31452,0-0.31452,0.31452-0.31452,0.31452-0.62903,0-0.31452,0.31452-0.62904,0.62903-0.62903,0.31452-0.31452,0.31452-0.62904,0-0.31452,0.31452-0.62903,0.62904-0.31452,0.62903-1.2581,0.62904-0.31452,0.94355,0,0.62904-0.94356,0.62904,0,0.94355-0.94355-0.31452-1.2581,0.31452-0.94356,0-0.31452,0.62904-0.94355,1.2581-0.31452,0.62903-0.31452,0.62904-1.2581,0.31452-0.62904,0.62904,0,0.62903,0.62904,0.94356,0,1.2581,0,0.31452,0,0.94355-0.31452,1.2581-0.31452,0.62904-0.31451,0.94356-0.31452,1.5726-0.31452,1.5726,0,0.62903,0,0.94356-0.31452,0.94355,0,0.62904,0.31452,0.62903,0,0.94356-0.62904,0.62904,0.31452,0,0.31452,0.94355-0.31452,0,0.31452-0.31452,0.31452,0,0.62903,0.31452,0.31452-0.31452,0.62904-0.62903,0.62904,0.31451,0.62903,0.31452,0,0.31452,0.31452,0.31452,0.31452,1.2581,0.31452,0.62904,0,0.62903,0,1.2581,0.62903,0.62903,0.62904,0.94356,0.31452,1.2581,0.31452,1.2581,0.62903,0.31452-0.31452,0.62904-0.31451-0.31452-0.94356,0.31452-0.31452,0.62903-0.62903,0.62904,0,1.5726,0,0.31452,0.62903,0.31452,0,0.31451,0,0.94356,0.31452,0.31452,0.31452,1.2581,0,0.94355,0.31452,0.94356,0.31452,0.62903,0,0.62904-0.31452,0.62904-0.31452,0.62903,0,0.94356,0,0,0.62904,0.31452-0.31452,0.94355,0.31452,0.62904,0,0.62903-0.31452,0.31452-0.31452,0-0.62904,0.31452-0.62903,0-0.31452,0.31452,0,0.31452-0.94356,0.31451-0.62903,0-0.62904,0.31452-0.62904-0.31452-0.31451,0.31452-0.31452-0.62903,0-0.94356-0.31452-0.62904,0.62904-1.5726,0-0.62903-0.31452-1.2581,0-0.31451,0.31452-0.62904,0-0.94355-0.31452-0.94356,0-0.62903-1.2581-0.62904-0.31452,0.31452-0.94356-0.62904-0.31451,1.2581-0.94356,1.5726,0,0.31452-0.94355,1.8871,0.31451,1.2581-0.94355,0.94356,0,1.8871,0,1.5726,0.62904,1.5726,0.31451,0.94355-0.31451,0.94356,0.31451,1.2581-0.62903,0-0.31452,0-0.62904-0.62904-0.62903-0.62903,0-0.31452-0.31452-1.2581-0.94356-1.2581-0.31451-0.94355-0.62904,0.94355,0,0.62904-0.94355-0.31452-0.31452,1.2581-0.31452,0-0.31452-0.94355,0-0.62904,0.31452-0.62903,0.31452-0.94356,0-0.94355,0.31452,0,0.62903,0.62904,0.31452,0.94355,0-0.31452,0.31452-0.94355,0-1.2581,0.62903-0.62903-0.31451,0.31452-0.31452-1.2581-0.31452,0.31452-0.31452,0.94356-0.31452-0.31452,0-1.5726-0.31451,0-0.31452-0.94356,0-0.62903,0.62903-0.62904,0.62904,0,0.31452-0.31452,0.31452-0.31452-0.31452-0.31451,1.2581-0.62904,0.62904-0.31452,0.62903,0.31452,0.62904,0,0.31452,0.94355,0.31452-0.31451,0.31451-0.94356,0-0.62903,0.31452-0.62904,0.62904-0.31452-0.62904,0-0.31452-0.62904,0-0.62903,0-1.2581,0.31452,0.62903,0.62904-0.31452,0-0.62903,0-0.62904-0.62904,0,0.31452,0.31452,0.62904,0.31452,0.62903-0.31452,0,0.62904,0.62904,0.31451,0.31452,0,0.31452-0.94355,0,0.31452,0.31451-0.62904,0.31452,0.62904,0.62904-0.94356,0-0.62903-0.31452-0.31452-0.94355-0.31452-0.62904-0.31452-0.31452-0.62903-0.62903,0-0.31452-0.31452,0,0-0.31452-0.31452-0.31452-0.31452-0.31452,0.31452-0.62903,0-0.31452-0.31452-0.31452-0.31452-0.31452-0.31451-0.31452-0.94356-0.31451-0.62904-0.31452-0.94355-0.31452-0.94355-0.62904,0.31451-0.31452-0.62903-0.31451,0-0.31452-0.62904-0.31452-0.31452,0.62904-0.31452-0.31452,0-0.31452,0.31452,0,0-0.31452-0.62903,0-0.94356,0.31452,0,0.31452,0,0.31452,0.31452,0.62903,0.94355,0.62904,0.62904,0.62904,0.94356,0.94355,0.94355,0-0.31452,0.31452,0.94356,0.31452,0.94355,0.31451,0.62904,0.62904,0.31452,0-0.31452,0.62904-0.62904-0.62904-0.62904,0-0.62903,0.62904,0.62903,0.31452,0,0.31451-0.31451,0.31452-0.62904,0.62904-0.31452,0.31452,0-0.31452,0-0.62904,0.31452-0.31452-0.31452-0.62903-0.31452-0.31452-0.31451-0.31452-0.31452-0.31452-0.62904-0.31452-0.62904-0.31451-0.62903,0-0.94356-0.31452-0.94355-0.62904-0.62904-0.62903-0.31451-0.94356-0.31452-0.31452-0.94356-0.31452-0.31452,0.31452-0.62903,0.31452-0.31452,0-0.94355,0.62904-2.2016-0.31452-1.2581,0.31452-0.31452,0.62903,0.31452,0.62904-0.94356,0.62904-1.2581,0.31451-0.31452,0.31452-0.62904,0.62904-0.31451,0.62904,0.31451,0.62903-0.62903,0.31452,0,0.62904-0.94356,0.31451-0.62903,0.94356-1.2581,0-0.94355,0-0.62904,0.31452-0.31451,0.31451-0.62904,0-0.31452-0.31451-0.31452-0.62904-0.94355-0.31452-0.31452,0.31452-0.62904,0-0.31451,0,0-0.94355,0-0.62904-0.62904,0,0-0.31452,0-0.62903,0.31452-0.31452,0-0.62904,0.31452-0.31452,0-0.62903-0.31452-0.31452,0-0.31452,0-0.62904-0.31452-0.62903,1.5726-0.62904,0.94355,0.31452,1.5726,0,0.94355,0,0.94355,0,1.5726,0,0.62903-0.62904,0-1.8871-0.94355-0.94355-0.62904-0.62904-1.5726-0.31451-0.31452-0.94356,1.2581,0,1.8871,0.31452-0.31451-1.2581,0.94355,0.31451,2.2016-0.62903,0.31452-0.94356,0.94355,0,0.62904-0.31451,0.62903-0.31452,0.94356-1.5726,1.2581-0.31452,0.94355,0,0-0.31452,0.94356,0,0.31452,0.31452,0.62903-0.62904-0.31452-0.31452,0-0.62903-0.31451-0.31452,0-1.2581,0.31451-0.31452,0.94356-0.31452,0.31452,0,0.94355-0.31452-0.31452,0.31452,0,0.31452,0,0.31452,0.62904,0.31452-0.31452,0.31451-0.31452,0-0.62903,0.62904,0,0.31452,0.31452,0.62903,0.94355,0,0,0.31452,0.94355,0,0.62904-0.31452,0.94355,0.31452,0.62904,0.31452,0.62904-0.31452,1.5726-0.31452,1.2581-0.31451,0.94356,0,0,0.31451,0.94355,0,0.31452-0.31451,1.5726-0.31452-0.31452-0.94356,0-0.62903,0.62904-0.62904,0.94355-0.31452,0.62904,0.62904,0.94355,0,0-0.94356,0.31452-0.31451-0.62904,0-0.62903-0.31452,0-0.62904,1.2581-0.31452,1.2581,0,1.2581,0,0.94355,0,0.94355-0.62903-0.94355-0.31452-1.8871,0-1.5726,0.31452-1.5726,0.31452-0.62904-0.62904-0.94355-0.31452,0-0.94355-0.31452-0.94356,0.31452-0.62903,0.94355-0.62904,2.5162-0.94355,0.62903-0.31452-0.31451-0.31452-1.2581-0.62904-1.8871,0.31452-0.94355,0.62904,0.31452,0.62903-1.5726,0.94356-1.8871,0.94355-0.94356,1.2581,0.94356,0.62904,0.94355,0.62904-0.94355,1.2581-1.2581,0.31452-0.31452,1.5726-0.62904,0.94355-0.94355,0-0.62904,0.62904-1.2581,0-0.31452-0.94355-0.94355-0.94356-0.62904-1.5726-0.62904-0.62904-1.8871,1.2581-1.5726,0.31451-1.2581-0.62903-0.31452-0.94356-0.31452-2.5161,0.94356-0.62904,2.5161-0.94355,1.8871-0.94356,1.8871-1.2581,2.5162-1.8871,1.5726-0.94355,2.8307-1.2581,2.2016-0.31451,1.5726,0,1.5726-0.94356,1.8871,0.31452,1.5726-0.31452,3.1452,0.62904-1.2581,0.31452,1.2581,0.62903,0.94356-0.31452,1.5726,0.62904,2.8307,0.31452,3.7742,0.94355,0.62903,0.62904,0.31452,0.62904-1.2581,0.62903-1.5726,0-4.4033-0.62903-0.94355,0,1.8871,0.94355,0,1.2581,1.2581,0.31452,0.94356,0.31452,0-0.31452-0.62904-0.62903,0.62904-0.31452,2.5161,0.62903,0.62904-0.31451-0.62904-0.62904,2.5162-0.94356,0.94355,0,0.94356,0.31452,0.31451-0.62903-0.62903-0.62904,0.31452-0.62904-0.62904-0.62903,2.8307,0.31452,0.62904,0.62903-1.2581,0,0,0.62904,0.62903,0.31452,1.5726,0,0.31452-0.62904,2.2016-0.62904,3.4597-0.94355,0.62903,0-0.94355,0.62904,1.2581,0.31451,0.62904-0.31451,1.8871,0,1.5726-0.62904,0.94355,0.62904,1.2581-0.62904-0.94356-0.62904,0.31452-0.31452,3.1452,0.31452,1.2581,0.31452,3.7742,1.2581,0.62904-0.62903-0.94356-0.62904-0.31452,0-0.94355-0.31452,0.31452-0.31452-0.62904-0.94355,0-0.31452,1.8871-0.62903,0.62904-0.94356,0.62903-0.31452,2.8307,0.31452,0,0.62904-0.94356,0.62903,0.62904,0.31452,0.31452,0.62904-0.31452,1.5726,1.2581,0.62904-0.31452,0.62903-2.2016,1.2581,1.2581,0.31452,0.31452-0.31452,1.2581-0.31451,0.31452-0.62904,0.62903-0.31452-0.31451-0.62903,0.31451-0.62904-0.94355,0-0.31452-0.62904,0.62904-0.94355-1.2581-0.94356,1.8871-0.62903-0.31451-0.62904,0.62903,0,0.31452,0.31452-0.31452,0.94355,1.2581,0.31452-0.62903-0.62903,1.5726-0.62904,2.2016,0,1.8871,0.62904-0.94356-0.94356,0-0.94355,1.5726-0.31452,2.5162,0.31452,2.2016-0.31452-0.94355-0.31452,1.2581-0.94355,1.2581,0,1.8871-0.31452,2.5162-0.31452,0.31452-0.31452,2.8307,0,0.62904,0.31452,2.2016-0.62904,1.8871,0,0.31452-0.31451,0.94355-0.31452,2.2016-0.62904,1.8871,0.31452-1.2581,0.31452,2.2016,0.31452" fill="#616161"/>

  <path d="m228.97,48.925,0.62903,0.62903,0.31452,0,0.31452,0.31452-0.94356,0,0,0.94356-0.31451,0.31451-0.31452,0.31452,0,0.31452,0.31452,0.94355,0.94355,0,0.62904,0.62904,1.5726,0,1.5726,0,0-0.31452,0-0.62903,0-1.2581-0.62904-0.31451,0-0.62904-0.62903,0,0.31451-0.94356,0.94356,0.31452,0.94355-0.31452-0.62903-0.62903-0.31452-0.62904-0.94356,0.31452,0,0.62904-0.31451-0.62904,0-0.62904,0-0.31451-1.2581-0.31452-0.31452-0.94356-0.62903-0.31452,0-0.31451,0.94355,0.31451,0-0.94355,0.94356,0,0.62903,0,0.31452-0.94355-0.31452-0.62904-0.94355,0-0.62904,0-1.2581,0.31452-0.94355,0.31452-0.62904,0.62903-0.94356,0-0.94355,0.94356,0.94355,0.94355,0,0.94356,0.94356,0.94355,0.62904,0.62904" fill="#616161"/>

  <path d="m86.178,12.755-0.62904,0-1.8871,0,0-0.31452,1.8871,0,0.62904,0,0,0.31452" fill="#616161"/>

  <path d="m69.823,12.44-1.8871,0.31452-1.5726-0.31452,0.94356-0.31452,1.2581,0,1.5726,0-0.31452,0.31452" fill="#616161"/>

  <path d="m204.44,12.44-2.2016,0.31452-1.5726-0.31452,0.62904-0.31452-0.62904-0.31452,2.2016,0,0.31452,0.31452,1.2581,0.31452" fill="#616161"/>

  <path d="m70.452,11.497-1.2581,0.31451-1.8871,0,1.2581-0.31451,0.31452,0,1.5726,0" fill="#616161"/>

  <path d="m83.976,12.126-1.2581,0.31452-0.94355-0.31452-0.31452-0.31452,0-0.62903,1.2581,0.31452,0.62904,0,0.94356,0.31451-0.31452,0.31452" fill="#616161"/>

  <path d="m79.888,11.811,0.31452,0.62904-1.5726-0.31452-1.5726-0.31452-2.2016,0,0.94356-0.31451-1.2581-0.31452,0-0.31452,1.8871,0.31452,2.8307,0.31452,0.62904,0.31451" fill="#616161"/>

  <path d="m284.95,11.811-5.6613,0.62904,1.8871-1.5726,0.62903,0,0.94356,0,2.5161,0.62904-0.31451,0.31451" fill="#616161"/>

  <path d="m198.15,10.553,3.1452,0.62904-2.5162,0.31452-0.31451,0.94355-0.94356,0-0.62904,0.94356-1.2581,0-1.8871-0.62904,0.94356-0.31452-1.5726-0.31452-1.8871-0.94355-0.94356-0.62904,2.8307-0.31452,0.62903,0.31452,1.2581,0,0.31451-0.31452,1.5726,0,1.2581,0.31452" fill="#616161"/>

  <path d="m205.38,9.9243,1.8871,0.31451-1.5726,0.31452-2.8307,0.31452-2.8307-0.31452-0.31452-0.31452-1.2581,0-1.2581-0.31451,3.1452-0.31452,1.5726,0.31452,0.94356-0.31452,2.5161,0.31452" fill="#616161"/>

  <path d="m230.86,9.6098-1.2581,0.31452-0.94355,0-1.2581,0.31451-0.94355-0.31451,0.31452-0.31452-2.2016,0,2.2016-0.31452,1.2581,0,0.31452,0.31452,0.62904,0,0.94355-0.31452,1.5726,0.31452-0.62904,0" fill="#616161"/>

  <path d="m279.61,11.182-1.8871,0.31452-2.8307-0.31452-1.8871-0.31452-0.62904-0.94355-1.2581,0,2.5161-0.62904,2.2016-0.31452,1.8871,0.62904,2.2016,0.94355-0.31452,0.62904" fill="#616161"/>

  <path d="m92.783,10.553,1.2581,0.31452-1.2581,0.31452-1.8871,0.62903-1.8871,0.31452-1.8871-0.31452-1.2581-0.31451,0-0.31452,0.94356-0.31452-1.8871,0-0.94355-0.31452-0.62904-0.62903,0.62904-0.31452,0.62904-0.31452,0.94355,0-0.31452-0.31452,2.2016,0,1.2581,0.62904,1.8871,0,1.5726,0.31452,0.62904,0.62903" fill="#616161"/>

  <path d="m111.34,7.0937,2.8307,0,2.2016,0.31452,1.5726,0.31452-2.2016,0.62903-2.5161,0-0.94356,0.31452,2.2016,0-2.5162,0.62904-1.5726,0.31452-1.5726,0.94355-2.2016,0-0.62904,0.31452-2.8307,0,1.2581,0-0.62904,0.31452,0.62904,0.62903-0.94356,0.31452-1.5726,0.31452-0.31452,0.31452-1.2581,0.31452,1.5726,0,0,0.31452-2.5161,0.62903-2.5162-0.31452-3.1452,0.31452-1.2581-0.31452-1.8871,0-0.31452-0.31451,1.8871-0.31452-0.31452-0.62904,0.31452-0.31452,2.8307,0.62904-1.2581-0.62904-1.8871-0.31452,0.94356-0.31451,1.8871-0.31452,0.31452-0.31452-1.5726-0.31452-0.31452-0.62903,2.5161,0,0.94355,0.31451,1.5726-0.62903-2.2016,0-3.4597,0-1.8871-0.31452-0.94356-0.31452-0.94355-0.31452-0.31452-0.31452,1.5726-0.31451,0.94356,0,2.2016,0,1.2581-0.62904,1.2581,0.31452,1.2581,0.31452,0.62904-0.62904,1.2581-0.31452,1.8871,0,3.1452,0,0.31452,0,3.1452,0,1.8871,0,2.2016,0" fill="#616161"/>

  <path d="m152.86,6.7791,6.2904,0.62904-1.8871,0.31452-3.7742,0.31452-5.3468,0,0.31452,0,3.4597,0,3.1452,0.31451,1.8871-0.31451,0.94355,0.31451-1.2581,0.62904,2.5162-0.31452,5.0323-0.31452,2.8307,0,0.62904,0.62904-4.0887,0.62904-0.62904,0.31452-3.1452,0,2.5162,0-1.2581,0.94355-0.94356,0.62904,0,0.94355,1.2581,0.62904-1.5726,0.31452-1.5726,0.31451,1.8871,0.31452,0.31452,0.94356-1.2581,0,1.2581,0.94355-2.2016,0,1.2581,0.62904-0.31451,0.31452-1.5726,0-1.2581,0,1.2581,0.62903,0,0.62904-1.8871-0.62904-0.62904,0.31452,1.2581,0.31452,1.5726,0.62903,0.31452,0.94356-1.8871,0-0.62903-0.31452-1.2581-0.62904,0.31452,0.62904-1.2581,0.62904,2.8307,0,1.2581,0-2.8307,0.94355-2.5161,0.94356-3.1452,0.31451-0.94356,0-0.94355,0.31452-1.5726,0.94356-2.2016,0.62903-0.62904,0.31452-1.2581,0-1.5726,0.31452-0.62904,0.62904,0,0.62903-0.62903,0.62904-1.5726,0.94355,0.31451,0.62904-0.31451,0.94355-0.62904,0.94356-1.2581,0-1.5726-0.62904-1.8871,0-0.94356-0.62904-0.94355-0.94355-1.5726-1.2581-0.62904-0.62904,0-0.94355-1.5726-0.94356,0.62904-0.62903-0.94356-0.31452,1.2581-1.2581,1.2581-0.31452,0.62903-0.62904,0-0.62904-0.94355,0.31452-0.62904,0-0.94355,0.31452-1.2581-0.31452,0-0.62903,0.31451-0.62904,0.94356,0,2.2016,0.31452-1.8871-0.62904-0.94356-0.31452-0.94355,0-0.62904-0.31451,0.94356-0.94356-0.62904-0.31452-0.62904-0.62903-1.2581-0.94356-1.2581-0.62903,0-0.31452-2.8307-0.62904-1.8871,0-2.8307,0-2.5161,0-0.94356-0.31452-1.8871-0.62903,2.5162-0.31452,2.2016,0-4.4033-0.31452-2.2016-0.31452,0-0.31452,4.0887-0.62903,3.4597-0.31452,0.31452-0.31452-2.5162-0.31452,0.94356-0.62903,3.4597-0.62904,1.2581,0-0.31452-0.62904,2.2016-0.31451,3.1452,0,3.1452,0,0.94356,0.31451,2.8307-0.62903,2.2016,0.31452,1.5726,0.31451,1.8871,0.31452-2.2016-0.62903,0-0.31452,3.4597-0.62904,3.4597,0,1.2581-0.31452,3.4597-0.31451,8.1775,0.31451" fill="#616161"/>

 </g>

<!-- QGIS extent for clipping, eg in Inkscape --></svg>

