<?xml version="1.0" encoding="UTF-8" standalone="no"?>
<!-- Created with Inkscape (http://www.inkscape.org/) -->

<svg
   xmlns:dc="http://purl.org/dc/elements/1.1/"
   xmlns:cc="http://creativecommons.org/ns#"
   xmlns:rdf="http://www.w3.org/1999/02/22-rdf-syntax-ns#"
   xmlns:svg="http://www.w3.org/2000/svg"
   xmlns="http://www.w3.org/2000/svg"
   xmlns:sodipodi="http://sodipodi.sourceforge.net/DTD/sodipodi-0.dtd"
   xmlns:inkscape="http://www.inkscape.org/namespaces/inkscape"
   id="svg2985"
   version="1.1"
   inkscape:version="0.92.1 r15371"
   width="24.999998"
   height="24.993427"
   xml:space="preserve"
   sodipodi:docname="zegami-white-spinner-square.svg"><metadata
     id="metadata2991"><rdf:RDF><cc:Work
         rdf:about=""><dc:format>image/svg+xml</dc:format><dc:type
           rdf:resource="http://purl.org/dc/dcmitype/StillImage" /><dc:title></dc:title></cc:Work></rdf:RDF></metadata><defs
     id="defs2989"><clipPath
       clipPathUnits="userSpaceOnUse"
       id="clipPath3001"><path
         d="M 0,841.89 H 1190.55 V 0 H 0 Z"
         id="path3003"
         inkscape:connector-curvature="0" /></clipPath><clipPath
       clipPathUnits="userSpaceOnUse"
       id="clipPath3033"><path
         d="m 235.815,482.376 c -14.519,-48.193 12.779,-99.032 60.972,-113.552 v 0 c 48.192,-14.519 99.031,12.779 113.551,60.972 v 0 c 14.52,48.192 -12.778,99.031 -60.972,113.551 v 0 c -8.762,2.64 -17.621,3.898 -26.324,3.898 v 0 c -39.163,0.004 -75.347,-25.439 -87.227,-64.869"
         id="path3035"
         inkscape:connector-curvature="0" /></clipPath><clipPath
       clipPathUnits="userSpaceOnUse"
       id="clipPath3001-1"><path
         inkscape:connector-curvature="0"
         d="M 0,898.016 H 1269.92 V 0 H 0 Z"
         id="path3003-7"
         style="stroke-width:1.06666672" /></clipPath></defs><sodipodi:namedview
     pagecolor="#ffffff"
     bordercolor="#666666"
     borderopacity="1"
     objecttolerance="10"
     gridtolerance="10"
     guidetolerance="10"
     inkscape:pageopacity="0"
     inkscape:pageshadow="2"
     inkscape:window-width="3840"
     inkscape:window-height="2004"
     id="namedview2987"
     showgrid="false"
     inkscape:zoom="52.122463"
     inkscape:cx="19.537494"
     inkscape:cy="10.679571"
     inkscape:window-x="-16"
     inkscape:window-y="-16"
     inkscape:window-maximized="1"
     inkscape:current-layer="layer2"
     fit-margin-top="0"
     fit-margin-left="0"
     fit-margin-right="0"
     fit-margin-bottom="0" /><g
     id="g2993"
     inkscape:groupmode="layer"
     inkscape:label="Pivoti_screens_display_version"
     transform="matrix(1.25,0,0,-1.25,-254.98963,458.04791)" /><g
     inkscape:groupmode="layer"
     id="layer2"
     inkscape:label="panabula"
     transform="translate(-254.98963,-664.47209)"><g
       id="g4621"
       transform="matrix(0.09742696,0,0,0.09742696,202.54927,627.74904)"
       style="stroke:#ffffff;stroke-opacity:1"><path
         inkscape:connector-curvature="0"
         id="path4551"
         d="m 669.25112,377.05086 -5.39356,256.29128"
         style="fill:none;stroke:#ffffff;stroke-width:11.58425236;stroke-linecap:butt;stroke-linejoin:miter;stroke-miterlimit:4;stroke-dasharray:none;stroke-opacity:1" /><path
         inkscape:connector-curvature="0"
         id="path4551-3"
         d="M 703.61728,382.49802 629.4914,627.89498"
         style="fill:none;stroke:#ffffff;stroke-width:11.58425236;stroke-linecap:butt;stroke-linejoin:miter;stroke-miterlimit:4;stroke-dasharray:none;stroke-opacity:1" /><path
         inkscape:connector-curvature="0"
         id="path4551-4"
         d="M 787.86502,463.8166 545.24366,546.5764"
         style="fill:none;stroke:#ffffff;stroke-width:11.58425236;stroke-linecap:butt;stroke-linejoin:miter;stroke-miterlimit:4;stroke-dasharray:none;stroke-opacity:1" /><path
         inkscape:connector-curvature="0"
         id="path4551-2"
         d="M 794.55085,498.45321 538.55783,511.93979"
         style="fill:none;stroke:#ffffff;stroke-width:11.58425236;stroke-linecap:butt;stroke-linejoin:miter;stroke-miterlimit:4;stroke-dasharray:none;stroke-opacity:1" /><path
         inkscape:connector-curvature="0"
         id="path4551-1"
         d="M 791.65614,533.09127 541.45254,477.30173"
         style="fill:none;stroke:#ffffff;stroke-width:11.58425236;stroke-linecap:butt;stroke-linejoin:miter;stroke-miterlimit:4;stroke-dasharray:none;stroke-opacity:1" /><path
         inkscape:connector-curvature="0"
         id="path4551-22"
         d="m 553.65224,444.51954 225.8042,121.35392"
         style="fill:none;stroke:#ffffff;stroke-width:11.58425236;stroke-linecap:butt;stroke-linejoin:miter;stroke-miterlimit:4;stroke-dasharray:none;stroke-opacity:1" /><path
         inkscape:connector-curvature="0"
         id="path4551-7"
         d="M 574.33595,416.1777 758.77273,594.2153"
         style="fill:none;stroke:#ffffff;stroke-width:11.58425236;stroke-linecap:butt;stroke-linejoin:miter;stroke-miterlimit:4;stroke-dasharray:none;stroke-opacity:1" /><path
         inkscape:connector-curvature="0"
         id="path4551-35"
         d="M 601.7413,394.6169 731.36738,615.7761"
         style="fill:none;stroke:#ffffff;stroke-width:11.58425236;stroke-linecap:butt;stroke-linejoin:miter;stroke-miterlimit:4;stroke-dasharray:none;stroke-opacity:1" /><path
         style="fill:none;stroke:#ffffff;stroke-width:11.58425236;stroke-linecap:butt;stroke-linejoin:miter;stroke-miterlimit:4;stroke-dasharray:none;stroke-opacity:1"
         d="m 634.099,381.19961 64.91068,247.99378"
         id="path4610"
         inkscape:connector-curvature="0" /></g></g><g
     inkscape:groupmode="layer"
     id="layer1"
     inkscape:label="old text"
     style="display:none"
     transform="translate(-254.98963,-664.47209)"><g
       transform="matrix(1.25,0,0,-1.25,-43.068879,1102.9559)"
       id="g2997"><g
         id="g2999"
         clip-path="url(#clipPath3001-1)"><g
           id="g3005"
           transform="translate(605.17664,471.072)"><path
             inkscape:connector-curvature="0"
             d="m 0,0 c 0,27.102933 -18.0704,47.026133 -42.162133,47.026133 -21.0816,0 -35.4432,-12.045866 -42.3936,-29.883733 V -8.1098667 c 0,-22.0064003 18.532266,-39.6128003 41.9296,-39.6128003 C -17.1424,-47.722667 0,-28.263467 0,0 M -95.444267,-94.517333 V 53.976533 c 0,0.231467 1.6224,1.1584 3.706667,1.1584 3.938133,0 7.181867,-2.085333 7.181867,-11.12 V 31.969067 c 8.8032,14.8256 22.9344,24.786133 43.552,24.786133 C -11.815467,56.7552 11.12,33.821867 11.12,0 c 0,-34.0544 -22.24,-57.451733 -52.818133,-57.451733 -22.008534,0 -37.0656,12.045866 -42.626134,24.555733 v -61.621333 c 0,-3.938134 -2.084266,-5.328 -4.865066,-5.328 h -1.1584 c -3.0112,0 -5.096534,1.389866 -5.096534,5.328"
             style="fill:#000000;fill-opacity:1;fill-rule:nonzero;stroke:none;stroke-width:1.06666672"
             id="path3007" /></g><g
           id="g3009"
           transform="translate(644.31819,420.56949)"><path
             inkscape:connector-curvature="0"
             d="m 0,0 v 100.30827 c 0,4.17066 1.8538667,5.32906 4.8650667,5.32906 h 1.1584 c 3.0112,0 5.0965333,-1.1584 5.0965333,-5.32906 V 0 c 0,-4.1696 -2.0853333,-5.328 -5.0965333,-5.328 h -1.1584 C 1.8538667,-5.328 0,-4.1696 0,0 m -2.0842667,142.23893 c 0,5.09654 2.5482667,7.6448 7.8752,7.6448 5.0965337,0 7.4133337,-2.54826 7.4133337,-7.6448 0,-5.09653 -2.5472,-7.6448 -7.876267,-7.6448 -4.864,0 -7.4122667,2.54827 -7.4122667,7.6448"
             style="fill:#000000;fill-opacity:1;fill-rule:nonzero;stroke:none;stroke-width:1.06666672"
             id="path3011" /></g><g
           id="g3013"
           transform="translate(720.29867,419.18027)"><path
             inkscape:connector-curvature="0"
             d="m 0,0 -42.162133,103.7824 c 0,2.08533 9.034666,7.87733 13.668266,-4.1696 L 7.8762667,6.7168 44.478933,99.6128 c 4.632534,12.2784 13.204267,6.25493 13.204267,4.1696 L 15.7536,0.23146667 C 14.5952,-2.7797333 13.204267,-4.1706667 7.6437333,-4.1706667 1.8528,-4.1706667 1.1584,-3.0133333 0,0"
             style="fill:#000000;fill-opacity:1;fill-rule:nonzero;stroke:none;stroke-width:1.06666672"
             id="path3015" /></g><g
           id="g3017"
           transform="translate(893.11136,470.37568)"><path
             inkscape:connector-curvature="0"
             d="m 0,0 c 0,26.8736 -18.7648,47.722667 -44.711467,47.722667 -25.944533,0 -44.9408,-20.386134 -44.9408,-47.258667 0,-26.872533 18.996267,-47.490133 44.9408,-47.490133 C -18.997333,-47.026133 0,-26.872533 0,0 m -100.77227,0.464 c 0,32.664533 23.166937,56.987733 56.060803,56.987733 32.433067,0 55.8304,-24.555733 55.8304,-57.451733 0,-32.430933 -23.397333,-56.7552 -55.8304,-56.7552 -32.893866,0 -56.060803,24.555733 -56.060803,57.2192"
             style="fill:#000000;fill-opacity:1;fill-rule:nonzero;stroke:none;stroke-width:1.06666672"
             id="path3019" /></g><g
           id="g3021"
           transform="translate(937.81227,447.67445)"><path
             inkscape:connector-curvature="0"
             d="m 0,0 v 67.8752 h -13.4368 c -4.1696,0 -5.328,1.6224 -5.328,4.402133 v 1.1584 c 0,2.779734 1.1584,4.401067 5.328,4.401067 H 0 v 21.313067 c 0,4.169603 2.0842667,5.560533 4.864,5.560533 h 1.3909333 c 2.7797334,0 4.6325337,-1.39093 4.6325337,-5.560533 V 77.8368 h 31.738666 c 4.168534,0 5.5584,-1.621333 5.5584,-4.401067 v -1.1584 c 0,-2.779733 -1.389866,-4.402133 -5.5584,-4.402133 H 10.887467 V 1.1584 c 0,-18.0704 5.328,-25.714133 18.301866,-25.714133 8.106667,0 13.898667,3.7056 17.8368,9.496533 0.464,0.232533 3.707734,-1.1584 3.707734,-5.5584 0,-1.854933 -0.928,-4.402133 -3.707734,-6.951467 -3.4752,-3.7056 -9.496533,-6.485333 -18.3008,-6.485333 C 9.2661333,-34.0544 0,-23.166933 0,0"
             style="fill:#000000;fill-opacity:1;fill-rule:nonzero;stroke:none;stroke-width:1.06666672"
             id="path3023" /></g><g
           id="g3025"
           transform="translate(1011.4709,420.56949)"><path
             inkscape:connector-curvature="0"
             d="m 0,0 v 100.30827 c 0,4.17066 1.8528,5.32906 4.8661333,5.32906 h 1.1573334 c 3.0112,0 5.0976003,-1.1584 5.0976003,-5.32906 V 0 c 0,-4.1696 -2.0864003,-5.328 -5.0976003,-5.328 H 4.8661333 C 1.8528,-5.328 0,-4.1696 0,0 m -2.0853333,142.23893 c 0,5.09654 2.5493333,7.6448 7.8762666,7.6448 5.0965337,0 7.4133337,-2.54826 7.4133337,-7.6448 0,-5.09653 -2.5472,-7.6448 -7.876267,-7.6448 -4.864,0 -7.4133333,2.54827 -7.4133333,7.6448"
             style="fill:#000000;fill-opacity:1;fill-rule:nonzero;stroke:none;stroke-width:1.06666672"
             id="path3027" /></g></g></g></g></svg>