<svg width="67" height="16.041" version="1.1" xml:space="preserve" xmlns="http://www.w3.org/2000/svg"><defs><clipPath id="clipPath3001-1"><path d="M 0,898.016 H 1269.92 V 0 H 0 Z" stroke-width="1.0667"/></clipPath></defs><g transform="translate(3.5921e-8,-1106.5)" fill="#fff"><g transform="matrix(.078255 0 0 -.078254 15.157 1111.7)"><path d="m0 0l-150.87-51.558c-11.469-3.92-22.939-7.84-34.409-11.759-5.7291-1.9584-3.2693-11.083 2.5109-9.1083 50.29 17.187 100.58 34.373 150.87 51.559 11.47 3.9189 22.94 7.8389 34.41 11.759 5.7291 1.9573 3.2683 11.083-2.5109 9.1072" fill="#fff"/></g><g transform="matrix(.078255 0 0 -.078254 15.655 1113.7)"><path d="m0 0c-53.065-2.9344-106.13-5.8677-159.19-8.8021-12.102-0.66987-24.205-1.3387-36.307-2.0075-6.0555-0.33493-6.0885-9.7813 0-9.4453 53.065 2.9344 106.13 5.8688 159.19 8.8021 12.102 0.66987 24.205 1.3387 36.307 2.0075 6.0555 0.33493 6.0885 9.7824 0 9.4453" fill="#fff"/></g><g transform="matrix(.078255 0 0 -.078254 15.583 1115.8)"><path d="m0 0c-51.878 11.537-103.76 23.074-155.63 34.611-11.833 2.6315-23.664 5.2629-35.497 7.8933-5.9339 1.3205-8.4555-7.7856-2.5109-9.1072 51.878-11.537 103.76-23.074 155.64-34.611 11.831-2.6315 23.664-5.2619 35.495-7.8933 5.9339-1.3195 8.4555 7.7856 2.5109 9.1072" fill="#fff"/></g><g transform="matrix(.078255 0 0 -.078254 14.942 1117.8)"><path d="m0 0c-46.819 25.147-93.639 50.294-140.46 75.441-10.678 5.7355-21.357 11.471-32.035 17.206-5.3643 2.8811-10.133-5.2736-4.7669-8.1557 46.82-25.147 93.639-50.294 140.46-75.441 10.677-5.7355 21.356-11.471 32.034-17.206 5.3643-2.8811 10.133 5.2736 4.7669 8.1557" fill="#fff"/></g><g transform="matrix(.078255 0 0 -.078254 13.783 1119.6)"><path d="m0 0c-38.267 36.88-76.532 73.76-114.8 110.64-8.7275 8.4117-17.455 16.822-26.182 25.234-4.3851 4.2251-11.071-2.4459-6.6784-6.6784 38.266-36.88 76.532-73.76 114.8-110.64 8.7275-8.4117 17.455-16.823 26.182-25.234 4.384-4.2261 11.071 2.4448 6.6784 6.6784" fill="#fff"/></g><g transform="matrix(.078255 0 0 -.078254 6.1538 1121.9)"><path d="m0 0c15.319 50.89 30.639 101.78 45.958 152.67 3.4944 11.606 6.9877 23.213 10.482 34.819 1.76 5.8475-7.3568 8.3275-9.1072 2.5109-15.319-50.89-30.639-101.78-45.959-152.67-3.4933-11.606-6.9877-23.213-10.481-34.819-1.76-5.8475 7.3557-8.3275 9.1072-2.5109" fill="#fff"/></g><g transform="matrix(.078255 0 0 -.078254 10.3 1121.8)"><path d="m0 0c-13.443 51.418-26.885 102.84-40.329 154.25l-9.1968 35.181c-1.5403 5.888-10.65 3.3877-9.1083-2.5109 13.443-51.418 26.885-102.83 40.329-154.25 3.0656-11.727 6.1312-23.454 9.1979-35.181 1.5392-5.888 10.65-3.3877 9.1072 2.5109" fill="#fff"/></g><g transform="matrix(.078255 0 0 -.078254 12.196 1120.9)"><path d="m0 0c-26.857 45.86-53.714 91.721-80.571 137.58-6.1248 10.459-12.251 20.918-18.375 31.378-3.0752 5.2512-11.241 0.50027-8.1557-4.7669 26.857-45.86 53.714-91.721 80.571-137.58 6.1259-10.46 12.251-20.918 18.375-31.378 3.0752-5.2512 11.241-0.50027 8.1557 4.7669" fill="#fff"/></g><g transform="matrix(.078255 0 0 -.078254 8.2349 1122.2)"><path d="m0 0c0.97493 53.137 1.9499 106.27 2.9248 159.41 0.22187 12.118 0.4448 24.238 0.66667 36.356 0.112 6.0939-9.3333 6.0832-9.4453 0-0.97387-53.136-1.9488-106.27-2.9237-159.41-0.22293-12.118-0.4448-24.237-0.66773-36.356-0.11093-6.0939 9.3333-6.0832 9.4453 0" fill="#fff"/></g><g transform="matrix(.078255 0 0 -.078254 7.8194 1115)"><path d="m0 0c-29.641-10.129-59.28-20.259-88.921-30.388-5.76-1.968-8.2453 7.1371-2.5024 9.0997 31.662 10.82 63.324 21.641 94.986 32.461z" fill="#fff"/></g><g transform="matrix(.078255 0 0 -.078254 7.8439 1114.9)"><path d="m0 0c-31.846-1.7611-63.693-3.5221-95.539-5.2832-6.0875-0.336-6.176 9.1008-0.11307 9.4357 32.906 1.8197 65.811 3.6395 98.718 5.4581z" fill="#fff"/></g><g transform="matrix(.078255 0 0 -.078254 7.8552 1114.8)"><path d="m0 0c-31.566 7.0197-63.132 14.039-94.698 21.059-5.9573 1.3248-3.6416 10.475 2.2848 9.1573 31.763-7.0645 63.527-14.128 95.291-21.191z" fill="#fff"/></g><g transform="matrix(.078255 0 0 -.078254 7.8575 1114.8)"><path d="m0 0c-28.849 15.494-57.698 30.99-86.547 46.485-5.3728 2.8853-0.78933 11.136 4.5621 8.2624 28.3-15.2 56.602-30.401 84.902-45.601z" fill="#fff"/></g><g transform="matrix(.078255 0 0 -.078254 2.7542 1108.9)"><path d="m0 0c22.775-21.95 45.551-43.9 68.325-65.851l-3.1968-10.023c-23.906 23.041-47.813 46.082-71.721 69.122-4.3829 4.224 2.2123 10.974 6.592 6.752" fill="#fff"/></g><g transform="matrix(.078255 0 0 -.078254 3.822 1108.1)"><path d="m0 0c-3.0709 5.2448 5.0709 10.018 8.1515 4.7584 15.644-26.713 31.286-53.425 46.93-80.137l-3.8571-12.093c-17.074 29.157-34.149 58.314-51.225 87.471" fill="#fff"/></g><g transform="matrix(.078255 0 0 -.078254 5.7186 1107.2)"><path d="m0 0c-1.5371 5.8784 7.5563 8.4053 9.0997 2.5024 7.5392-28.836 15.078-57.674 22.618-86.511l-5.36-16.806c-8.7851 33.604-17.571 67.21-26.357 100.81" fill="#fff"/></g><g transform="matrix(.078255 0 0 -.078254 7.7838 1106.8)"><path d="m0 0c0.112 6.0768 9.5467 6.208 9.4357 0.11307-0.49067-26.738-0.98133-53.476-1.472-80.214l-10.009-31.385c0.6816 37.163 1.3632 74.324 2.0448 111.49" fill="#fff"/></g><g transform="matrix(.078255 0 0 -.078254 6.1538 1121.9)"><path d="m0 0c15.319 50.89 30.639 101.78 45.958 152.67 3.4944 11.606 6.9877 23.213 10.482 34.819 1.76 5.8475-7.3568 8.3275-9.1072 2.5109-15.319-50.89-30.639-101.78-45.959-152.67-3.4933-11.606-6.9877-23.213-10.481-34.819-1.76-5.8475 7.3557-8.3275 9.1072-2.5109" fill="#fff"/></g></g><g fill="#fff" stroke-width=".066777" aria-label="zegami"><path d="m18.37 12.053h5.5591c0.40066 0 0.5509-0.13355 0.5509-0.41735v-0.10016c0-0.2838-0.15025-0.41735-0.5509-0.41735h-4.7077l4.7244-5.7761c0.30049-0.36727 0.41735-0.51751 0.41735-0.68445v-0.08347c0-0.2671-0.11686-0.46743-0.51751-0.46743h-5.4422c-0.40066 0-0.5509 0.13355-0.5509 0.41735v0.10016c0 0.2838 0.15025 0.41735 0.5509 0.41735h4.5074l-4.6409 5.676c-0.30049 0.36727-0.41735 0.51751-0.41735 0.71784v0.15025c0 0.2671 0.11686 0.46743 0.51751 0.46743z"/><path d="m26.795 7.4453c0.23372-1.5192 1.3689-2.5876 2.8714-2.5876 1.4858 0 2.454 1.0183 2.5542 2.5876zm-0.05008 0.93486h6.1768c0.33388 0 0.45074-0.066776 0.45074-0.36727v-0.10016c0-2.4206-1.4691-4.0066-3.7061-4.0066-2.3038 0-4.0066 1.7863-4.0066 4.2069 0 2.4373 1.6861 4.1401 4.1067 4.1401 2.1535 0 3.3555-1.2187 3.3555-1.7696 0-0.51751-0.60098-0.66776-0.63437-0.61768-0.46743 0.75123-1.1686 1.419-2.7211 1.419-1.6861 0-2.9381-1.2187-3.0216-2.9048z"/><path d="m37.901 11.752c1.2687 0.33388 2.7712 0.51751 2.7712 1.4858 0 0.93486-1.1185 1.4524-2.9381 1.4524-1.7863 0-2.7211-0.45074-2.7211-1.2854 0-0.98495 1.3689-1.5859 2.8881-1.6527zm-0.11686-2.838c-1.252 0-2.1368-0.8347-2.1368-2.0367 0-1.2354 0.86809-2.0701 2.1034-2.0701 1.3021 0 2.1702 0.86809 2.1702 2.0701s-0.86809 2.0367-2.1368 2.0367zm1.9866-4.3905c-0.5509-0.38396-1.252-0.61768-2.0033-0.61768-1.853 0-3.2219 1.3522-3.2219 3.0049 0 1.2187 0.80131 2.237 2.0033 2.6543-0.21702 0.21702-0.36727 0.48413-0.36727 0.78462 0 0.36727 0.15025 0.60098 0.35057 0.76792-1.4524 0.2671-2.5709 1.0851-2.5709 2.2871 0 1.4691 1.202 2.1702 3.7395 2.1702 2.5542 0 4.0566-0.88478 4.0566-2.3705 0-1.2687-1.202-1.803-2.3372-2.0868-1.4524-0.36727-2.2036-0.41735-2.2036-0.96825 0-0.13355 0.01669-0.2671 0.11686-0.40066 0.15025 0.016694 0.2838 0.016694 0.43404 0.016694 1.8697 0 3.272-1.2854 3.272-2.9214 0-0.66776-0.25041-1.2687-0.65107-1.7529l1.3188-1.4691c0.03339-0.033388-0.16694-0.48413-0.61768-0.48413-0.35057 0-0.53421 0.16694-0.76792 0.50082z"/><path d="m45.258 11.335c-1.0851 0-1.7362-0.51751-1.7362-1.3188 0-1.252 1.4023-1.7362 4.1234-1.8363l0.46743-0.016694v0.73454c0 1.419-1.2187 2.4373-2.8547 2.4373zm2.8547-4.0233h-0.16694c-3.6727 0.08347-5.5257 0.85139-5.5257 2.7044 0 1.3355 1.0016 2.2203 2.7378 2.2203 1.2687 0 2.3539-0.5509 2.9715-1.4691v0.30049c0 0.86809 0.31719 1.0517 0.68445 1.0517 0.20033 0 0.36727-0.08347 0.36727-0.11686v-5.0082c0-1.9198-1.202-3.0884-3.2219-3.0884-2.1034 0-3.2386 1.2687-3.2386 1.8363 0 0.58429 0.61768 0.65107 0.61768 0.63437 0.43404-0.81801 1.252-1.4691 2.5375-1.4691 1.4357 0 2.237 0.75123 2.237 2.1201z"/><path d="m52.434 5.2918v-0.20033c0-0.86809-0.33388-1.0517-0.70115-1.0517-0.20033 0-0.36727 0.08347-0.36727 0.11686v7.4455c0 0.40066 0.20033 0.51751 0.48413 0.51751h0.11686c0.2838 0 0.48413-0.11686 0.48413-0.51751v-5.075c0.46743-0.95156 1.3856-1.6026 2.3705-1.6026 1.3689 0 2.0534 0.81801 2.0534 2.4874v4.1902c0 0.40066 0.20033 0.51751 0.48413 0.51751h0.11686c0.2838 0 0.48413-0.11686 0.48413-0.51751v-5.075c0.46743-0.95156 1.3856-1.6026 2.3705-1.6026 1.3689 0 2.0534 0.81801 2.0534 2.4039v4.2737c0 0.40066 0.20033 0.51751 0.48413 0.51751h0.11686c0.2838 0 0.48413-0.11686 0.48413-0.51751v-4.3404c0-2.2036-1.0684-3.3555-3.0717-3.3555-1.3188 0-2.2871 0.75123-2.8213 1.7028-0.43404-1.1185-1.3856-1.7028-2.6377-1.7028-1.0684 0-1.9532 0.5676-2.5041 1.3856z"/><path d="m66.264 2.1199c0.48413 0 0.73454-0.23372 0.73454-0.71784 0-0.48413-0.23372-0.71784-0.70115-0.71784-0.48413 0-0.73454 0.23372-0.73454 0.71784 0 0.46743 0.25041 0.71784 0.70115 0.71784zm-0.05008 9.9997h0.11686c0.2838 0 0.48413-0.11686 0.48413-0.51751v-7.0449c0-0.40066-0.20033-0.51751-0.48413-0.51751h-0.11686c-0.2838 0-0.48413 0.11686-0.48413 0.51751v7.0449c0 0.40066 0.20033 0.51751 0.48413 0.51751z"/></g><g transform="translate(3.5921e-8 -1106.5)" display="none"><g transform="matrix(1.25 0 0 -1.25 -43.069 1103)"><g clip-path="url(#clipPath3001-1)"><g transform="translate(605.18 471.07)"><path d="m0 0c0 27.103-18.07 47.026-42.162 47.026-21.082 0-35.443-12.046-42.394-29.884v-25.252c0-22.006 18.532-39.613 41.93-39.613 25.484 0 42.626 19.459 42.626 47.723m-95.444-94.517v148.49c0 0.23147 1.6224 1.1584 3.7067 1.1584 3.9381 0 7.1819-2.0853 7.1819-11.12v-12.046c8.8032 14.826 22.934 24.786 43.552 24.786 29.188 0 52.124-22.933 52.124-56.755 0-34.054-22.24-57.452-52.818-57.452-22.009 0-37.066 12.046-42.626 24.556v-61.621c0-3.9381-2.0843-5.328-4.8651-5.328h-1.1584c-3.0112 0-5.0965 1.3899-5.0965 5.328"/></g><g transform="translate(644.32 420.57)"><path d="m0 0v100.31c0 4.1707 1.8539 5.3291 4.8651 5.3291h1.1584c3.0112 0 5.0965-1.1584 5.0965-5.3291v-100.31c0-4.1696-2.0853-5.328-5.0965-5.328h-1.1584c-3.0112 0-4.8651 1.1584-4.8651 5.328m-2.0843 142.24c0 5.0965 2.5483 7.6448 7.8752 7.6448 5.0965 0 7.4133-2.5483 7.4133-7.6448s-2.5472-7.6448-7.8763-7.6448c-4.864 0-7.4123 2.5483-7.4123 7.6448"/></g><g transform="translate(720.3 419.18)"><path d="m0 0-42.162 103.78c0 2.0853 9.0347 7.8773 13.668-4.1696l36.37-92.896 36.603 92.896c4.6325 12.278 13.204 6.2549 13.204 4.1696l-41.93-103.55c-1.1584-3.0112-2.5493-4.4021-8.1099-4.4021-5.7909 0-6.4853 1.1573-7.6437 4.1707"/></g><g transform="translate(893.11 470.38)"><path d="m0 0c0 26.874-18.765 47.723-44.711 47.723-25.945 0-44.941-20.386-44.941-47.259s18.996-47.49 44.941-47.49c25.714 0 44.711 20.154 44.711 47.026m-100.77 0.464c0 32.665 23.167 56.988 56.061 56.988 32.433 0 55.83-24.556 55.83-57.452 0-32.431-23.397-56.755-55.83-56.755-32.894 0-56.061 24.556-56.061 57.219"/></g><g transform="translate(937.81 447.67)"><path d="m0 0v67.875h-13.437c-4.1696 0-5.328 1.6224-5.328 4.4021v1.1584c0 2.7797 1.1584 4.4011 5.328 4.4011h13.437v21.313c0 4.1696 2.0843 5.5605 4.864 5.5605h1.3909c2.7797 0 4.6325-1.3909 4.6325-5.5605v-21.313h31.739c4.1685 0 5.5584-1.6213 5.5584-4.4011v-1.1584c0-2.7797-1.3899-4.4021-5.5584-4.4021h-31.739v-66.717c0-18.07 5.328-25.714 18.302-25.714 8.1067 0 13.899 3.7056 17.837 9.4965 0.464 0.23253 3.7077-1.1584 3.7077-5.5584 0-1.8549-0.928-4.4021-3.7077-6.9515-3.4752-3.7056-9.4965-6.4853-18.301-6.4853-19.459 0-28.725 10.887-28.725 34.054"/></g><g transform="translate(1011.5 420.57)"><path d="m0 0v100.31c0 4.1707 1.8528 5.3291 4.8661 5.3291h1.1573c3.0112 0 5.0976-1.1584 5.0976-5.3291v-100.31c0-4.1696-2.0864-5.328-5.0976-5.328h-1.1573c-3.0133 0-4.8661 1.1584-4.8661 5.328m-2.0853 142.24c0 5.0965 2.5493 7.6448 7.8763 7.6448 5.0965 0 7.4133-2.5483 7.4133-7.6448s-2.5472-7.6448-7.8763-7.6448c-4.864 0-7.4133 2.5483-7.4133 7.6448"/></g></g></g></g></svg>
