<svg width="44" height="14" viewBox="0 0 44 14" version="1.1" xmlns="http://www.w3.org/2000/svg" xmlns:xlink="http://www.w3.org/1999/xlink">
<title>Group</title>
<g id="Canvas" transform="translate(-36 -662)">
<g id="Group">
<g id="Vector">
<use xlink:href="#path0_fill" transform="translate(36 665.072)" fill="#FFFFFF"/>
</g>
<g id="Vector">
<use xlink:href="#path1_fill" transform="translate(42.7442 664.894)" fill="#FFFFFF"/>
</g>
<g id="Vector">
<use xlink:href="#path2_fill" transform="translate(50.2051 664.205)" fill="#FFFFFF"/>
</g>
<g id="Vector">
<use xlink:href="#path3_fill" transform="translate(57.8586 664.894)" fill="#FFFFFF"/>
</g>
<g id="Vector">
<use xlink:href="#path4_fill" transform="translate(65.9094 664.888)" fill="#FFFFFF"/>
</g>
<g id="Vector">
<use xlink:href="#path5_fill" transform="translate(78.7054 662.026)" fill="#FFFFFF"/>
</g>
</g>
</g>
<defs>
<path id="path0_fill" d="M -7.35061e-07 6.51364C -7.35061e-07 6.33551 0.108389 6.20488 0.373341 5.87237L 4.55837 0.825339L 0.493773 0.825339C 0.132476 0.825339 -7.35061e-07 0.706585 -7.35061e-07 0.457202L -7.35061e-07 0.368137C -7.35061e-07 0.118754 0.132476 -7.24815e-07 0.493773 -7.24815e-07L 5.4014 -7.24815e-07C 5.76269 -7.24815e-07 5.87108 0.17813 5.87108 0.415637L 5.87108 0.48689C 5.87108 0.635333 5.76269 0.7719 5.49774 1.09254L 1.23443 6.22863L 5.47968 6.22863C 5.84097 6.22863 5.97345 6.34739 5.97345 6.59677L 5.97345 6.68584C 5.97345 6.93522 5.84097 7.05397 5.47968 7.05397L 0.469685 7.05397C 0.108388 7.05397 -7.35061e-07 6.87584 -7.35061e-07 6.63833L -7.35061e-07 6.51364Z"/>
<path id="path1_fill" d="M 3.61297 -7.24815e-07C 5.63022 -7.24815e-07 6.95497 1.41317 6.95497 3.56261L 6.95497 3.65168C 6.95497 3.91887 6.84658 3.97825 6.5455 3.97825L 0.975503 3.97825C 1.04776 5.49236 2.16778 6.56114 3.69728 6.56114C 5.09429 6.56114 5.73258 5.96737 6.1541 5.30235C 6.18421 5.25485 6.72615 5.39142 6.72615 5.84862C 6.72615 6.33551 5.64226 7.42211 3.7033 7.42211C 1.52347 7.42211 -7.35061e-07 5.908 -7.35061e-07 3.74074C -7.35061e-07 1.58536 1.53551 -7.24815e-07 3.61297 -7.24815e-07ZM 5.91323 3.14697C 5.82291 1.75162 4.94977 0.843152 3.61297 0.843152C 2.25811 0.843152 1.21637 1.79318 1.01163 3.14697L 5.91323 3.14697Z"/>
<path id="path2_fill" d="M 2.33639 7.10147C 2.15574 6.95303 2.02326 6.74521 2.02326 6.41864C 2.02326 6.16926 2.15574 5.91394 2.33639 5.71799C 1.2525 5.34986 0.541947 4.44139 0.541947 3.35479C 0.541947 1.88225 1.77638 0.682835 3.44437 0.682835C 4.11879 0.682835 4.75708 0.890653 5.25086 1.2291L 5.74463 0.445327C 5.95538 0.148443 6.11797 7.24815e-07 6.43711 7.24815e-07C 6.84658 7.24815e-07 7.02723 0.403762 6.9911 0.427513L 5.79882 1.7338C 6.16012 2.16132 6.38894 2.71352 6.38894 3.28948C 6.38894 4.74421 5.1244 5.89019 3.43835 5.89019C 3.30587 5.89019 3.16737 5.89019 3.04694 5.87831C 2.95662 6.00894 2.93855 6.11582 2.93855 6.23457C 2.93855 6.72146 3.61297 6.76896 4.92569 7.09554C 5.94936 7.34492 7.03326 7.81994 7.03326 8.9481C 7.03326 10.2663 5.67839 11.056 3.37211 11.056C 1.08389 11.056 7.35061e-07 10.4325 7.35061e-07 9.12623C 0.0180656 8.06338 1.0297 7.35086 2.33639 7.10147ZM 3.42028 10.2781C 5.05816 10.2781 6.0698 9.815 6.0698 8.98372C 6.0698 8.12276 4.71493 7.94463 3.57082 7.66555C 2.19789 7.73681 0.969481 8.24745 0.969481 9.1381C 0.969481 9.87437 1.81251 10.2781 3.42028 10.2781ZM 5.39537 3.33104C 5.39537 2.26226 4.61256 1.49036 3.43835 1.49036C 2.32435 1.49036 1.54153 2.23257 1.54153 3.33104C 1.54153 4.39983 2.33639 5.14204 3.46845 5.14204C 4.61256 5.14204 5.39537 4.39983 5.39537 3.33104Z"/>
<path id="path3_fill" d="M 4.97988 3.02822L 5.13042 3.02822L 5.13042 2.77884C 5.13042 1.56161 4.40783 0.890652 3.11318 0.890652C 1.95703 0.890652 1.21637 1.47255 0.824962 2.19694C 0.824962 2.20882 0.270972 2.14944 0.270972 1.63286C 0.270972 1.12816 1.29465 -7.24815e-07 3.19146 -7.24815e-07C 5.00999 -7.24815e-07 6.09388 1.0391 6.09388 2.74321L 6.09388 7.19648C 6.09388 7.22616 5.94334 7.30335 5.76269 7.30335C 5.4315 7.30335 5.14849 7.1371 5.14849 6.3652L 5.14849 6.098C 4.57643 6.91741 3.61297 7.4043 2.46886 7.4043C 0.903243 7.4043 -7.35061e-07 6.62052 -7.35061e-07 5.43298C -7.35061e-07 3.78231 1.66799 3.09947 4.97988 3.02822ZM 2.55919 6.60271C 4.03449 6.60271 5.13644 5.70018 5.13644 4.43545L 5.13644 3.78231L 4.71493 3.79418C 2.25811 3.88325 0.993567 4.3167 0.993567 5.42705C 0.993567 6.14551 1.57766 6.60271 2.55919 6.60271Z"/>
<path id="path4_fill" d="M 0 0.225631C 0 0.195943 0.150541 0.118754 0.331189 0.118754C 0.662379 0.118754 0.96346 0.285008 0.96346 1.05691L 0.96346 1.23504C 1.45723 0.522516 2.25811 0 3.22157 0C 4.35363 0 5.2087 0.522516 5.60011 1.51411C 6.08184 0.670959 6.95497 0 8.14123 0C 9.94772 0 10.9112 1.02128 10.9112 2.98072L 10.9112 6.84022C 10.9112 7.19648 10.7305 7.30336 10.4776 7.30336L 10.3692 7.30336C 10.1163 7.30336 9.93568 7.19648 9.93568 6.84022L 9.93568 3.0401C 9.93568 1.62693 9.32147 0.902527 8.08102 0.902527C 7.18982 0.902527 6.36485 1.48442 5.94334 2.32757L 5.94334 6.84022C 5.94334 7.19648 5.76269 7.30336 5.50979 7.30336L 5.40139 7.30336C 5.14849 7.30336 4.96784 7.19648 4.96784 6.84022L 4.96784 3.11135C 4.96784 1.62692 4.35363 0.902527 3.11318 0.902527C 2.22198 0.902527 1.39702 1.48442 0.975504 2.32757L 0.975504 6.84022C 0.975504 7.19648 0.794854 7.30336 0.541946 7.30336L 0.433558 7.30336C 0.180649 7.30336 0 7.19648 0 6.84022L 0 0.225631Z"/>
<path id="path5_fill" d="M 0 0.64127C 0 0.213756 0.228822 0 0.662379 0C 1.08389 0 1.29465 0.207818 1.29465 0.64127C 1.29465 1.07472 1.06583 1.28254 0.63227 1.28254C 0.228822 1.2766 0 1.05691 0 0.64127ZM 0.150541 3.44386C 0.150541 3.0876 0.331186 2.98072 0.584095 2.98072L 0.692487 2.98072C 0.945395 2.98072 1.12604 3.0876 1.12604 3.44386L 1.12604 9.70812C 1.12604 10.0644 0.945395 10.1713 0.692487 10.1713L 0.584095 10.1713C 0.331186 10.1713 0.150541 10.0644 0.150541 9.70812L 0.150541 3.44386Z"/>
</defs>
</svg>
